<svg xmlns="http://www.w3.org/2000/svg" xmlns:xlink="http://www.w3.org/1999/xlink" width="148" height="85" viewBox="0 0 148 85"><defs><clipPath id="b"><rect width="148" height="85"/></clipPath></defs><g id="a" clip-path="url(#b)"><rect width="148" height="85" fill="#fff"/><g transform="translate(-0.073 -1.044)"><g transform="translate(55.196 2.637)"><path d="M69.53-79.247a3.232,3.232,0,0,1-.146,1.021,2.438,2.438,0,0,1-.4.753,2.093,2.093,0,0,1-.583.51,2.839,2.839,0,0,1-.689.292v.032a2.461,2.461,0,0,1,.818.308,2.573,2.573,0,0,1,.664.567,2.7,2.7,0,0,1,.454.8,2.91,2.91,0,0,1,.17,1.013,3.161,3.161,0,0,1-.227,1.215,2.479,2.479,0,0,1-.7.956,3.409,3.409,0,0,1-1.207.632,5.866,5.866,0,0,1-1.734.227H63.664V-82.1h2.155a6.193,6.193,0,0,1,1.693.2,3.19,3.19,0,0,1,1.158.575,2.148,2.148,0,0,1,.656.9A3.252,3.252,0,0,1,69.53-79.247ZM68.1-79.2a1.656,1.656,0,0,0-.551-1.28,2.519,2.519,0,0,0-1.734-.5h-.745v3.856H65.8a2.414,2.414,0,0,0,1.718-.551A1.994,1.994,0,0,0,68.1-79.2Zm.211,5.153a1.823,1.823,0,0,0-.591-1.434,2.465,2.465,0,0,0-1.693-.527h-.956v3.921h.875a2.7,2.7,0,0,0,1.807-.494A1.854,1.854,0,0,0,68.314-74.046ZM77-70.919H75.8v-.875h-.032a1.587,1.587,0,0,1-.211.283,2.113,2.113,0,0,1-.413.356,2.774,2.774,0,0,1-.608.3,2.309,2.309,0,0,1-.794.13,2.656,2.656,0,0,1-.932-.154,1.7,1.7,0,0,1-.7-.494,2.3,2.3,0,0,1-.446-.883,4.967,4.967,0,0,1-.154-1.337v-5.1h1.312v5.007a2.327,2.327,0,0,0,.316,1.385,1.156,1.156,0,0,0,.98.413,1.578,1.578,0,0,0,.956-.284,3.35,3.35,0,0,0,.616-.559V-78.7H77Zm6.255,0v-5.007a2.35,2.35,0,0,0-.332-1.418,1.2,1.2,0,0,0-1.013-.429,1.575,1.575,0,0,0-.972.292,3.571,3.571,0,0,0-.616.567v6H79.009V-78.7h1.2v.875h.032a1.592,1.592,0,0,1,.211-.284,2.029,2.029,0,0,1,.421-.356,2.973,2.973,0,0,1,.616-.3,2.36,2.36,0,0,1,.81-.13,2.725,2.725,0,0,1,.94.154,1.686,1.686,0,0,1,.713.494,2.388,2.388,0,0,1,.454.883,4.736,4.736,0,0,1,.162,1.337v5.1Zm2.917-3.775a5.506,5.506,0,0,1,.308-1.977,3.644,3.644,0,0,1,.794-1.28,2.769,2.769,0,0,1,1.1-.689,3.923,3.923,0,0,1,1.231-.2,3.247,3.247,0,0,1,.648.057,2.164,2.164,0,0,1,.454.138v-3.727l1.312-.146v11.6h-1.2v-.826h-.032a1.863,1.863,0,0,1-.178.267,1.809,1.809,0,0,1-.356.34,2.146,2.146,0,0,1-.567.292,2.359,2.359,0,0,1-.794.121,2.551,2.551,0,0,1-1.045-.219,2.255,2.255,0,0,1-.867-.7,3.632,3.632,0,0,1-.591-1.231A6.6,6.6,0,0,1,86.171-74.694Zm3.079,2.8a1.737,1.737,0,0,0,.551-.081,1.7,1.7,0,0,0,.421-.2,1.791,1.791,0,0,0,.3-.251,1.833,1.833,0,0,0,.186-.227v-4.8a1.96,1.96,0,0,0-.413-.194,1.838,1.838,0,0,0-.591-.081,2.334,2.334,0,0,0-.851.154,1.658,1.658,0,0,0-.689.51,2.641,2.641,0,0,0-.462.924,4.909,4.909,0,0,0-.17,1.394,5.6,5.6,0,0,0,.138,1.353,2.526,2.526,0,0,0,.381.875,1.471,1.471,0,0,0,.551.478A1.5,1.5,0,0,0,89.249-71.891Zm9.771-4.181q0,.5-.032.867t-.065.64h-3.97a3.457,3.457,0,0,0,.591,2.025,1.839,1.839,0,0,0,1.515.648,2.178,2.178,0,0,0,.616-.081,2.322,2.322,0,0,0,.478-.194,2.333,2.333,0,0,0,.34-.227q.138-.113.2-.178l.486.924q-.081.081-.243.235a2.181,2.181,0,0,1-.437.308,3.139,3.139,0,0,1-.681.267,3.571,3.571,0,0,1-.956.113,3.444,3.444,0,0,1-1.321-.243,2.5,2.5,0,0,1-1-.754,3.641,3.641,0,0,1-.64-1.3,6.865,6.865,0,0,1-.227-1.888,6.045,6.045,0,0,1,.235-1.791,3.576,3.576,0,0,1,.64-1.24,2.557,2.557,0,0,1,.94-.721,2.828,2.828,0,0,1,1.15-.235,2.23,2.23,0,0,1,1.75.7A3.082,3.082,0,0,1,99.02-76.071Zm-2.463-1.75a1.314,1.314,0,0,0-1.118.583,3.183,3.183,0,0,0-.486,1.685h2.836a1.77,1.77,0,0,0,.024-.235q.008-.154.008-.332a2.106,2.106,0,0,0-.324-1.256A1.09,1.09,0,0,0,96.557-77.821Zm7.567.7a3.3,3.3,0,0,0-.47-.4,1.465,1.465,0,0,0-.891-.251,1.164,1.164,0,0,0-.794.243.752.752,0,0,0-.275.583,1.047,1.047,0,0,0,.251.721,3.552,3.552,0,0,0,.77.608l.486.292a4.778,4.778,0,0,1,1.248,1.013,2.112,2.112,0,0,1,.454,1.4,2.1,2.1,0,0,1-.64,1.556,2.508,2.508,0,0,1-1.839.632,3.154,3.154,0,0,1-.826-.1,3.608,3.608,0,0,1-.624-.227,2.049,2.049,0,0,1-.446-.283,2.955,2.955,0,0,1-.292-.284l.632-1.037q.1.1.235.227a2.127,2.127,0,0,0,.332.251,2.04,2.04,0,0,0,.437.2,1.794,1.794,0,0,0,.567.081,1.349,1.349,0,0,0,.891-.259.8.8,0,0,0,.308-.632,1.412,1.412,0,0,0-.073-.478,1.1,1.1,0,0,0-.219-.365,2.037,2.037,0,0,0-.356-.308q-.211-.146-.486-.324l-.486-.308a4.691,4.691,0,0,1-1.142-.988,2.066,2.066,0,0,1-.413-1.329,1.874,1.874,0,0,1,.17-.8,1.887,1.887,0,0,1,.478-.632,2.327,2.327,0,0,1,.721-.421,2.511,2.511,0,0,1,.883-.154,2.965,2.965,0,0,1,.778.089,2.326,2.326,0,0,1,.559.227,2.432,2.432,0,0,1,.389.275q.154.138.251.235Zm1.863,4.229a2.259,2.259,0,0,1,.259-1.134,2.12,2.12,0,0,1,.7-.737,2.974,2.974,0,0,1,1.029-.405,6.231,6.231,0,0,1,1.256-.121h.405v-.745a2.013,2.013,0,0,0-.348-1.361,1.276,1.276,0,0,0-.98-.373,1.758,1.758,0,0,0-.972.251,5.833,5.833,0,0,0-.616.446l-.551-.875a4.073,4.073,0,0,1,.332-.292,2.783,2.783,0,0,1,.494-.308,3.407,3.407,0,0,1,.664-.243,3.345,3.345,0,0,1,.843-.1,2.354,2.354,0,0,1,1.815.664,3.085,3.085,0,0,1,.616,2.139v3.549q0,.5.032.98a6.111,6.111,0,0,0,.065.64h-1.248l-.049-.859H109.7a2.069,2.069,0,0,1-.194.332,1.6,1.6,0,0,1-.324.34,1.947,1.947,0,0,1-.47.267,1.7,1.7,0,0,1-.648.113,2.068,2.068,0,0,1-.818-.162,2.017,2.017,0,0,1-.664-.454,2.024,2.024,0,0,1-.437-.689A2.376,2.376,0,0,1,105.987-72.9Zm2.349,1.053a1.347,1.347,0,0,0,.486-.081,1.554,1.554,0,0,0,.365-.194,1.276,1.276,0,0,0,.259-.251q.105-.138.186-.235v-1.718l-.421.016a3.02,3.02,0,0,0-1.426.324,1.013,1.013,0,0,0-.486.94,1.289,1.289,0,0,0,.275.9A.983.983,0,0,0,108.337-71.842Zm8.653.924v-5.007a2.605,2.605,0,0,0-.275-1.377.986.986,0,0,0-.892-.421,1.872,1.872,0,0,0-.575.081,2.023,2.023,0,0,0-.447.2,1.89,1.89,0,0,0-.339.267c-.1.1-.178.184-.244.259v6h-1.312V-78.7h1.2v.875h.033a2.576,2.576,0,0,1,.242-.316,2.207,2.207,0,0,1,.406-.357,2.3,2.3,0,0,1,.566-.283,2.2,2.2,0,0,1,.73-.113,1.953,1.953,0,0,1,1.879,1.037,2.392,2.392,0,0,1,.308-.348,2.477,2.477,0,0,1,.453-.34,2.606,2.606,0,0,1,.584-.251,2.466,2.466,0,0,1,.712-.1q2.367,0,2.367,2.755v5.218h-1.313v-5.007a2.2,2.2,0,0,0-.34-1.377,1.217,1.217,0,0,0-1-.421,1.5,1.5,0,0,0-.915.267,3.486,3.486,0,0,0-.576.51,3.816,3.816,0,0,1,.049.381q.016.2.016.429v5.218Zm10.678-6.708h-1.7v4.31a2.11,2.11,0,0,0,.21,1.126.811.811,0,0,0,.713.3,1.4,1.4,0,0,0,.5-.081,1.7,1.7,0,0,0,.308-.146l.178,1.053a2.256,2.256,0,0,1-.389.2,2.057,2.057,0,0,1-.827.138,1.919,1.919,0,0,1-1.506-.559,2.752,2.752,0,0,1-.5-1.855v-4.488h-.941V-78.5l.941-.194.146-2.171h1.167V-78.7h1.863ZM66.662-61.287H65.074v6.708H63.761v-6.708h-.94v-.875l.94-.178V-63.9a2.967,2.967,0,0,1,.178-1.086,2.149,2.149,0,0,1,.47-.745,1.719,1.719,0,0,1,.681-.421,2.6,2.6,0,0,1,.826-.13,1.975,1.975,0,0,1,.713.113,2.356,2.356,0,0,1,.389.178L66.743-64.9a1.617,1.617,0,0,0-.275-.138,1.158,1.158,0,0,0-.437-.073.875.875,0,0,0-.713.292,1.727,1.727,0,0,0-.243,1.069v1.393h1.75ZM73.4-54.579H72.2v-.875h-.032a1.587,1.587,0,0,1-.211.283,2.114,2.114,0,0,1-.413.356,2.774,2.774,0,0,1-.608.3,2.309,2.309,0,0,1-.794.13,2.656,2.656,0,0,1-.932-.154,1.7,1.7,0,0,1-.7-.494,2.3,2.3,0,0,1-.446-.883,4.967,4.967,0,0,1-.154-1.337v-5.1h1.312v5.007a2.327,2.327,0,0,0,.316,1.385,1.156,1.156,0,0,0,.98.413,1.578,1.578,0,0,0,.956-.284,3.352,3.352,0,0,0,.616-.559v-5.963H73.4ZM70.178-64.593a.81.81,0,0,1-.227.6.75.75,0,0,1-.551.227.75.75,0,0,1-.551-.227.81.81,0,0,1-.227-.6.81.81,0,0,1,.227-.6.75.75,0,0,1,.551-.227.75.75,0,0,1,.551.227A.81.81,0,0,1,70.178-64.593Zm2.5,0a.81.81,0,0,1-.227.6.75.75,0,0,1-.551.227.75.75,0,0,1-.551-.227.81.81,0,0,1-.227-.6.81.81,0,0,1,.227-.6.75.75,0,0,1,.551-.227.75.75,0,0,1,.551.227A.81.81,0,0,1,72.673-64.593Zm6.157,3.387a.936.936,0,0,0-.211-.081,1.576,1.576,0,0,0-.437-.049,1.34,1.34,0,0,0-.964.332,1.941,1.941,0,0,0-.494.721v5.7H75.411v-7.778h1.2V-61.3h.032a2.568,2.568,0,0,1,.211-.446,1.6,1.6,0,0,1,.324-.389,1.44,1.44,0,0,1,.462-.267,1.878,1.878,0,0,1,.64-.1,1.669,1.669,0,0,1,.446.049q.17.049.267.081Zm13.951-4.553v11.18H91.42v-6.3q0-.486.008-.907t.024-.745q.016-.324.032-.5h-.049q-.081.373-.332,1.207t-.575,1.791l-1.847,5.461H87.564L85.717-60.04q-.324-.956-.575-1.791t-.332-1.207h-.049q.016.194.032.519t.024.737q.008.413.008.9v6.3H83.465v-11.18h1.572l2.641,7.713q.178.535.316,1.045a5.207,5.207,0,0,1,.17.883H88.2a4.034,4.034,0,0,1,.154-.875q.138-.5.316-1.037l2.641-7.729Zm3.6,11.18H95.066v-7.778h1.312Zm-.648-9.657a.846.846,0,0,1-.648-.259.955.955,0,0,1-.243-.681.932.932,0,0,1,.243-.664.846.846,0,0,1,.648-.259.827.827,0,0,1,.632.259.932.932,0,0,1,.243.664.955.955,0,0,1-.243.681A.827.827,0,0,1,95.731-64.236Zm8.231,2.9h-.972a2.638,2.638,0,0,1,.373,1.394,2.9,2.9,0,0,1-.2,1.11,2.335,2.335,0,0,1-.567.835,2.473,2.473,0,0,1-.859.519,3.1,3.1,0,0,1-1.061.178h-.211a1.5,1.5,0,0,1-.211-.016,1.582,1.582,0,0,0-.405.259.585.585,0,0,0-.211.47.491.491,0,0,0,.186.4.954.954,0,0,0,.608.154h.988a4.348,4.348,0,0,1,1.021.113,2.31,2.31,0,0,1,.818.365,1.732,1.732,0,0,1,.543.64,2.083,2.083,0,0,1,.194.94,2.473,2.473,0,0,1-.267,1.15,2.64,2.64,0,0,1-.754.891,3.668,3.668,0,0,1-1.183.583,5.366,5.366,0,0,1-1.556.211,2.886,2.886,0,0,1-1.9-.543,1.925,1.925,0,0,1-.648-1.564A1.7,1.7,0,0,1,97.845-54a2.379,2.379,0,0,1,.365-.551,2.058,2.058,0,0,1,.429-.373l.348-.219v-.032a1.268,1.268,0,0,1-.5-1.086,1.117,1.117,0,0,1,.122-.535,1.451,1.451,0,0,1,.275-.373,1.665,1.665,0,0,1,.308-.235,2.015,2.015,0,0,1,.235-.121v-.032a2.193,2.193,0,0,1-.964-.867,2.847,2.847,0,0,1-.365-1.515,2.893,2.893,0,0,1,.211-1.142,2.312,2.312,0,0,1,.567-.818,2.341,2.341,0,0,1,.835-.486,3.186,3.186,0,0,1,1.029-.162,2.766,2.766,0,0,1,1.037.194h2.366Zm-3.613,6.514a3.282,3.282,0,0,1-.6-.049,1.9,1.9,0,0,0-.283.194,1.372,1.372,0,0,0-.251.275,1.47,1.47,0,0,0-.186.381,1.615,1.615,0,0,0-.073.51q0,1.248,1.377,1.248a2.744,2.744,0,0,0,1.75-.462,1.348,1.348,0,0,0,.567-1.061.888.888,0,0,0-.356-.8,1.716,1.716,0,0,0-.956-.235Zm1.734-5.12a1.548,1.548,0,0,0-.4-1.2,1.35,1.35,0,0,0-.932-.356,1.422,1.422,0,0,0-.972.356,1.529,1.529,0,0,0-.405,1.2,1.529,1.529,0,0,0,.405,1.2,1.379,1.379,0,0,0,.94.356,1.392,1.392,0,0,0,.964-.356A1.548,1.548,0,0,0,102.082-59.942Zm6.789-1.264a.936.936,0,0,0-.211-.081,1.576,1.576,0,0,0-.437-.049,1.34,1.34,0,0,0-.964.332,1.941,1.941,0,0,0-.494.721v5.7h-1.312v-7.778h1.2V-61.3h.032a2.567,2.567,0,0,1,.211-.446,1.594,1.594,0,0,1,.324-.389,1.44,1.44,0,0,1,.462-.267,1.878,1.878,0,0,1,.64-.1,1.669,1.669,0,0,1,.446.049q.17.049.267.081Zm.762,4.65a2.259,2.259,0,0,1,.259-1.134,2.12,2.12,0,0,1,.7-.737,2.974,2.974,0,0,1,1.029-.405,6.229,6.229,0,0,1,1.256-.121h.405V-59.7a2.013,2.013,0,0,0-.348-1.361,1.276,1.276,0,0,0-.98-.373,1.758,1.758,0,0,0-.972.251,5.835,5.835,0,0,0-.616.446l-.551-.875a4.062,4.062,0,0,1,.332-.292,2.78,2.78,0,0,1,.494-.308,3.406,3.406,0,0,1,.664-.243,3.344,3.344,0,0,1,.843-.1,2.356,2.356,0,0,1,1.815.664,3.088,3.088,0,0,1,.615,2.139V-56.2q0,.5.033.98a6.194,6.194,0,0,0,.064.64h-1.247l-.049-.859h-.032a2.067,2.067,0,0,1-.194.332,1.6,1.6,0,0,1-.324.34,1.947,1.947,0,0,1-.47.267,1.7,1.7,0,0,1-.648.113,2.068,2.068,0,0,1-.818-.162,2.017,2.017,0,0,1-.664-.454,2.024,2.024,0,0,1-.437-.689A2.376,2.376,0,0,1,109.633-56.556Zm2.35,1.053a1.347,1.347,0,0,0,.486-.081,1.554,1.554,0,0,0,.365-.194,1.276,1.276,0,0,0,.259-.251q.105-.138.186-.235v-1.718l-.421.016a3.02,3.02,0,0,0-1.426.324,1.013,1.013,0,0,0-.486.94,1.289,1.289,0,0,0,.275.9A.983.983,0,0,0,111.983-55.5Zm7.891-5.785h-1.7v4.31a2.11,2.11,0,0,0,.21,1.126.811.811,0,0,0,.714.3,1.4,1.4,0,0,0,.5-.081,1.7,1.7,0,0,0,.308-.146l.178,1.053a2.255,2.255,0,0,1-.389.2,2.053,2.053,0,0,1-.827.138,1.922,1.922,0,0,1-1.506-.559,2.752,2.752,0,0,1-.5-1.855v-4.488h-.94v-.875l.94-.194.146-2.171h1.167v2.171h1.863Zm2.8,6.708h-1.313v-7.778h1.313Zm-.648-9.657a.847.847,0,0,1-.648-.259.955.955,0,0,1-.244-.681.933.933,0,0,1,.244-.664.847.847,0,0,1,.648-.259.827.827,0,0,1,.632.259.933.933,0,0,1,.244.664.955.955,0,0,1-.244.681A.827.827,0,0,1,122.029-64.236Zm2.3,5.768a6.038,6.038,0,0,1,.251-1.847,3.606,3.606,0,0,1,.681-1.272,2.671,2.671,0,0,1,.989-.729,3.044,3.044,0,0,1,1.191-.235,3.024,3.024,0,0,1,1.2.235,2.484,2.484,0,0,1,.956.729,3.632,3.632,0,0,1,.64,1.272,6.428,6.428,0,0,1,.236,1.847,6.288,6.288,0,0,1-.244,1.863,3.492,3.492,0,0,1-.673,1.272,2.581,2.581,0,0,1-1,.721,3.2,3.2,0,0,1-1.2.227,3.124,3.124,0,0,1-1.2-.227,2.43,2.43,0,0,1-.956-.721,3.66,3.66,0,0,1-.64-1.264A6.477,6.477,0,0,1,124.33-58.468Zm4.779,0a4.31,4.31,0,0,0-.453-2.26,1.424,1.424,0,0,0-1.264-.7,1.4,1.4,0,0,0-1.255.7,4.36,4.36,0,0,0-.447,2.26,4.172,4.172,0,0,0,.453,2.236,1.44,1.44,0,0,0,1.265.681,1.418,1.418,0,0,0,1.255-.681A4.236,4.236,0,0,0,129.11-58.468Zm7.259,3.889v-5.007A2.347,2.347,0,0,0,136.036-61a1.2,1.2,0,0,0-1.012-.429,1.573,1.573,0,0,0-.972.292,3.533,3.533,0,0,0-.615.567v6h-1.313v-7.778h1.2v.875h.033a1.567,1.567,0,0,1,.211-.284,2.012,2.012,0,0,1,.421-.356,2.991,2.991,0,0,1,.615-.3,2.363,2.363,0,0,1,.81-.13,2.734,2.734,0,0,1,.941.154,1.688,1.688,0,0,1,.712.494,2.378,2.378,0,0,1,.453.883,4.7,4.7,0,0,1,.162,1.337v5.1ZM68.833-38.239h-1.2v-.875H67.6a1.589,1.589,0,0,1-.211.283,2.114,2.114,0,0,1-.413.356,2.775,2.775,0,0,1-.608.3,2.309,2.309,0,0,1-.794.13,2.656,2.656,0,0,1-.932-.154,1.7,1.7,0,0,1-.7-.494,2.3,2.3,0,0,1-.446-.883,4.967,4.967,0,0,1-.154-1.337v-5.1h1.312v5.007a2.327,2.327,0,0,0,.316,1.385,1.156,1.156,0,0,0,.98.413A1.578,1.578,0,0,0,66.9-39.5a3.351,3.351,0,0,0,.616-.559v-5.963h1.312Zm6.255,0v-5.007a2.351,2.351,0,0,0-.332-1.418,1.2,1.2,0,0,0-1.013-.429,1.575,1.575,0,0,0-.972.292,3.571,3.571,0,0,0-.616.567v6H70.842v-7.778h1.2v.875h.032a1.592,1.592,0,0,1,.211-.284,2.03,2.03,0,0,1,.421-.356,2.974,2.974,0,0,1,.616-.3,2.36,2.36,0,0,1,.81-.13,2.725,2.725,0,0,1,.94.154,1.686,1.686,0,0,1,.713.494,2.388,2.388,0,0,1,.454.883,4.737,4.737,0,0,1,.162,1.337v5.1ZM78-42.015a5.506,5.506,0,0,1,.308-1.977,3.644,3.644,0,0,1,.794-1.28,2.769,2.769,0,0,1,1.1-.689,3.923,3.923,0,0,1,1.231-.2,3.247,3.247,0,0,1,.648.057,2.164,2.164,0,0,1,.454.138V-49.7l1.312-.146v11.6h-1.2v-.826h-.032a1.861,1.861,0,0,1-.178.267,1.808,1.808,0,0,1-.356.34,2.147,2.147,0,0,1-.567.292,2.359,2.359,0,0,1-.794.121,2.551,2.551,0,0,1-1.045-.219,2.255,2.255,0,0,1-.867-.7,3.632,3.632,0,0,1-.591-1.231A6.6,6.6,0,0,1,78-42.015Zm3.079,2.8a1.737,1.737,0,0,0,.551-.081,1.7,1.7,0,0,0,.421-.2,1.792,1.792,0,0,0,.3-.251,1.834,1.834,0,0,0,.186-.227v-4.8a1.96,1.96,0,0,0-.413-.194,1.838,1.838,0,0,0-.591-.081,2.334,2.334,0,0,0-.851.154,1.658,1.658,0,0,0-.689.51,2.641,2.641,0,0,0-.462.924,4.91,4.91,0,0,0-.17,1.394A5.6,5.6,0,0,0,79.5-40.71a2.526,2.526,0,0,0,.381.875,1.471,1.471,0,0,0,.551.478A1.5,1.5,0,0,0,81.083-39.212Zm8.491.972V-49.42h5.493l-.1,1.118H90.983v4.132h3.678v1.118H90.983v4.812Zm8.248-1.815a1.232,1.232,0,0,0,.138.681.545.545,0,0,0,.478.194,1.181,1.181,0,0,0,.3-.032,1.026,1.026,0,0,0,.186-.065l.113.972a2.767,2.767,0,0,1-.356.13,2.411,2.411,0,0,1-.7.081,1.446,1.446,0,0,1-1.069-.405,2.019,2.019,0,0,1-.405-1.442V-49.7l1.312-.146Zm7.842,1.815h-1.2v-.875h-.032a1.589,1.589,0,0,1-.211.283,2.114,2.114,0,0,1-.413.356,2.775,2.775,0,0,1-.608.3,2.309,2.309,0,0,1-.794.13,2.656,2.656,0,0,1-.932-.154,1.7,1.7,0,0,1-.7-.494,2.3,2.3,0,0,1-.446-.883,4.967,4.967,0,0,1-.154-1.337v-5.1h1.312v5.007a2.327,2.327,0,0,0,.316,1.385,1.156,1.156,0,0,0,.98.413,1.578,1.578,0,0,0,.956-.284,3.352,3.352,0,0,0,.616-.559v-5.963h1.312Zm-3.224-10.014a.81.81,0,0,1-.227.6.75.75,0,0,1-.551.227.75.75,0,0,1-.551-.227.81.81,0,0,1-.227-.6.81.81,0,0,1,.227-.6.75.75,0,0,1,.551-.227.75.75,0,0,1,.551.227A.81.81,0,0,1,102.439-48.253Zm2.5,0a.81.81,0,0,1-.227.6.75.75,0,0,1-.551.227.75.75,0,0,1-.551-.227.81.81,0,0,1-.227-.6.81.81,0,0,1,.227-.6.75.75,0,0,1,.551-.227.75.75,0,0,1,.551.227A.81.81,0,0,1,104.934-48.253ZM112-44.51q-.049-.049-.154-.146a1.639,1.639,0,0,0-.267-.194,1.865,1.865,0,0,0-.389-.17,1.694,1.694,0,0,0-.519-.073,2,2,0,0,0-.786.154,1.583,1.583,0,0,0-.632.494,2.536,2.536,0,0,0-.421.883,4.9,4.9,0,0,0-.154,1.321,6.389,6.389,0,0,0,.138,1.442,2.718,2.718,0,0,0,.381.932,1.416,1.416,0,0,0,.591.5,1.882,1.882,0,0,0,.77.154,1.652,1.652,0,0,0,.916-.211,3.129,3.129,0,0,0,.446-.34l.535.907a2.387,2.387,0,0,1-.235.235,2.023,2.023,0,0,1-.4.267,2.668,2.668,0,0,1-.591.219,3.255,3.255,0,0,1-.8.089,3.464,3.464,0,0,1-1.215-.211,2.4,2.4,0,0,1-.988-.7,3.5,3.5,0,0,1-.664-1.264,6.549,6.549,0,0,1-.243-1.928,5.422,5.422,0,0,1,.292-1.9,3.532,3.532,0,0,1,.762-1.256,2.911,2.911,0,0,1,1.045-.7,3.237,3.237,0,0,1,1.158-.219,3.267,3.267,0,0,1,.77.081,2.562,2.562,0,0,1,.567.2,1.874,1.874,0,0,1,.389.259q.154.138.251.235Zm6.174,6.271v-5.007a2.356,2.356,0,0,0-.332-1.418,1.2,1.2,0,0,0-1.013-.429,1.573,1.573,0,0,0-.972.292,3.584,3.584,0,0,0-.615.567v6h-1.313V-49.7l1.313-.146v4.618h.033a2.879,2.879,0,0,1,.2-.259,1.853,1.853,0,0,1,.381-.324,2.636,2.636,0,0,1,.591-.284,2.49,2.49,0,0,1,.818-.121,2.072,2.072,0,0,1,1.62.664,3.256,3.256,0,0,1,.6,2.2v5.1Zm6.594-6.708h-1.7v4.31a2.107,2.107,0,0,0,.211,1.126.811.811,0,0,0,.714.3,1.4,1.4,0,0,0,.5-.081,1.7,1.7,0,0,0,.308-.146l.178,1.053a2.254,2.254,0,0,1-.389.2,2.057,2.057,0,0,1-.826.138,1.924,1.924,0,0,1-1.507-.559,2.76,2.76,0,0,1-.5-1.855v-4.488h-.941v-.875l.941-.194.146-2.171h1.166v2.171h1.864Zm2.787,4.893a1.238,1.238,0,0,0,.138.681.544.544,0,0,0,.478.194,1.177,1.177,0,0,0,.3-.032,1.021,1.021,0,0,0,.187-.065l.113.972a2.758,2.758,0,0,1-.355.13,2.416,2.416,0,0,1-.7.081,1.45,1.45,0,0,1-1.07-.405,2.021,2.021,0,0,1-.4-1.442V-49.7l1.313-.146Zm3.71,1.815h-1.313v-7.778h1.313Zm-.648-9.657a.847.847,0,0,1-.648-.259.955.955,0,0,1-.244-.681.933.933,0,0,1,.244-.664.847.847,0,0,1,.648-.259.827.827,0,0,1,.632.259.933.933,0,0,1,.244.664.955.955,0,0,1-.244.681A.827.827,0,0,1,130.617-47.9Zm6.9,9.657v-5.007a2.347,2.347,0,0,0-.332-1.418,1.2,1.2,0,0,0-1.012-.429,1.573,1.573,0,0,0-.972.292,3.546,3.546,0,0,0-.617.567v6h-1.311v-7.778h1.2v.875h.033a1.565,1.565,0,0,1,.211-.284,2.011,2.011,0,0,1,.421-.356,2.992,2.992,0,0,1,.615-.3,2.363,2.363,0,0,1,.81-.13,2.721,2.721,0,0,1,.94.154,1.684,1.684,0,0,1,.714.494,2.378,2.378,0,0,1,.453.883,4.752,4.752,0,0,1,.162,1.337v5.1ZM146.367-45h-.972a2.643,2.643,0,0,1,.372,1.394,2.907,2.907,0,0,1-.2,1.11,2.325,2.325,0,0,1-.568.835,2.467,2.467,0,0,1-.859.519,3.1,3.1,0,0,1-1.061.178h-.211a1.491,1.491,0,0,1-.21-.016,1.564,1.564,0,0,0-.406.259.586.586,0,0,0-.211.47.492.492,0,0,0,.187.4.958.958,0,0,0,.609.154h.987a4.349,4.349,0,0,1,1.021.113,2.3,2.3,0,0,1,.818.365,1.725,1.725,0,0,1,.543.64,2.087,2.087,0,0,1,.193.94,2.471,2.471,0,0,1-.267,1.15,2.639,2.639,0,0,1-.753.891,3.672,3.672,0,0,1-1.183.583,5.365,5.365,0,0,1-1.555.211,2.89,2.89,0,0,1-1.9-.543,1.926,1.926,0,0,1-.648-1.564,1.693,1.693,0,0,1,.155-.753,2.369,2.369,0,0,1,.364-.551,2.027,2.027,0,0,1,.43-.373l.347-.219v-.032a1.27,1.27,0,0,1-.5-1.086,1.109,1.109,0,0,1,.121-.535,1.447,1.447,0,0,1,.275-.373,1.67,1.67,0,0,1,.308-.235,1.949,1.949,0,0,1,.236-.121v-.032a2.185,2.185,0,0,1-.964-.867A2.841,2.841,0,0,1,140.5-43.6a2.9,2.9,0,0,1,.211-1.142,2.317,2.317,0,0,1,.566-.818,2.348,2.348,0,0,1,.835-.486,3.187,3.187,0,0,1,1.029-.162,2.766,2.766,0,0,1,1.036.194h2.367Zm-3.614,6.514a3.275,3.275,0,0,1-.6-.049,1.826,1.826,0,0,0-.283.194,1.335,1.335,0,0,0-.252.275,1.462,1.462,0,0,0-.187.381,1.643,1.643,0,0,0-.072.51q0,1.248,1.377,1.248a2.742,2.742,0,0,0,1.75-.462,1.347,1.347,0,0,0,.568-1.061.887.887,0,0,0-.357-.8,1.719,1.719,0,0,0-.956-.235Zm1.733-5.12a1.55,1.55,0,0,0-.4-1.2,1.353,1.353,0,0,0-.931-.356,1.426,1.426,0,0,0-.974.356,1.531,1.531,0,0,0-.4,1.2,1.531,1.531,0,0,0,.4,1.2,1.383,1.383,0,0,0,.941.356,1.4,1.4,0,0,0,.964-.356A1.55,1.55,0,0,0,144.486-43.6Zm8.264.211q0,.5-.033.867c-.02.243-.042.456-.064.64h-3.971a3.459,3.459,0,0,0,.592,2.025,1.838,1.838,0,0,0,1.514.648,2.184,2.184,0,0,0,.617-.081,2.343,2.343,0,0,0,.478-.194,2.376,2.376,0,0,0,.34-.227c.091-.076.159-.135.2-.178l.486.924c-.053.054-.135.132-.242.235a2.243,2.243,0,0,1-.437.308,3.154,3.154,0,0,1-.681.267,3.58,3.58,0,0,1-.956.113,3.442,3.442,0,0,1-1.321-.243,2.492,2.492,0,0,1-1-.754,3.645,3.645,0,0,1-.64-1.3,6.869,6.869,0,0,1-.227-1.888,6.048,6.048,0,0,1,.236-1.791,3.583,3.583,0,0,1,.64-1.239,2.55,2.55,0,0,1,.94-.721,2.828,2.828,0,0,1,1.151-.235,2.229,2.229,0,0,1,1.75.7A3.078,3.078,0,0,1,152.75-43.392Zm-2.462-1.75a1.316,1.316,0,0,0-1.119.583,3.191,3.191,0,0,0-.486,1.685h2.836a1.742,1.742,0,0,0,.025-.235q.008-.154.008-.332a2.113,2.113,0,0,0-.324-1.256A1.091,1.091,0,0,0,150.288-45.142Z" transform="translate(-62.821 82.52)"/></g><g transform="translate(1.073 2.044)"><path d="M42.272,32.339a7.862,7.862,0,0,0,.059-.941c0-.176,0-.38-.02-.611,2.714-.038,5.094-1.993,5.094-4.242a4.07,4.07,0,0,0-1.167-2.523q.141-.031.286-.065a4.554,4.554,0,0,1,1.525,3.125c0,2.7-2.7,5.2-5.776,5.257m-2.734-9.394a1.851,1.851,0,0,0-.339-.807c.01-.275.123-.538.565-.321-.24.245-.054.679-.054.679s.49-.227.388-.551c.727.174.2,1.151-.56,1m-.63,1.385a2.843,2.843,0,0,0-.566-1.129,1.571,1.571,0,0,0-1.17-.62,2.868,2.868,0,0,0-.912.225,2.5,2.5,0,0,1-.286-.8c0-.2.334-.4.972-.4,1.405,0,2.244.635,2.244,1.7a2.538,2.538,0,0,1-.282,1.017m3.608,18.11a.83.83,0,0,1,.338.061,19.256,19.256,0,0,0,2.029,3.265l.014.019.023-.005a15.241,15.241,0,0,1,2.176-.208h.019a.353.353,0,0,1,.253.063.387.387,0,0,1,.079.278,1.55,1.55,0,0,1-.189.7,1.916,1.916,0,0,0-1.494-.452,2.671,2.671,0,0,0-.63.1l-.059.012-.067.018.429.429c.662.662,1.234,1.232,1.234,1.612a.96.96,0,0,1-.428.659,3.639,3.639,0,0,0-1.432-2.149l-.059-.044-.011.245c-.01.166-.025.415-.025.682,0,1.325-.135,1.526-.594,1.526a.838.838,0,0,1-.245-.045,2.218,2.218,0,0,0,.361-1.483l0-.342,0-.275a4.885,4.885,0,0,1,.056-.709l.014-.1-.072-.01a7.434,7.434,0,0,0-.919-.084,1.949,1.949,0,0,0-1.42.362,1.124,1.124,0,0,1-.43-.654c0-.276.172-.3.4-.3a3.1,3.1,0,0,1,.368.034,9.48,9.48,0,0,0,1.578.1h.054l-.018-.053a10.588,10.588,0,0,0-1.8-2.737c.087-.317.173-.524.479-.524M34.109,45.7l-.018.053h.054a9.494,9.494,0,0,0,1.578-.1,3.1,3.1,0,0,1,.368-.034c.225,0,.4.022.4.3a1.128,1.128,0,0,1-.429.654,1.953,1.953,0,0,0-1.42-.362,7.408,7.408,0,0,0-.92.084l-.034,0-.038.005.012.1a4.669,4.669,0,0,1,.057.709l0,.275,0,.342a2.209,2.209,0,0,0,.362,1.483.855.855,0,0,1-.246.045c-.46,0-.594-.2-.594-1.526,0-.267-.014-.516-.023-.682l-.014-.246-.057.045a3.63,3.63,0,0,0-1.431,2.149.957.957,0,0,1-.429-.659c0-.38.572-.95,1.234-1.612l.38-.38.049-.049-.125-.03a2.671,2.671,0,0,0-.632-.1,1.917,1.917,0,0,0-1.492.452,1.55,1.55,0,0,1-.189-.7.387.387,0,0,1,.079-.278.353.353,0,0,1,.253-.063h.019a15.22,15.22,0,0,1,2.176.208l.023.005.014-.019a19.239,19.239,0,0,0,2.03-3.265.813.813,0,0,1,.336-.061c.306,0,.392.207.481.524a10.565,10.565,0,0,0-1.8,2.737M29.9,27.082a4.554,4.554,0,0,1,1.526-3.125q.143.035.286.065a4.064,4.064,0,0,0-1.168,2.523c0,2.271,2.426,4.243,5.174,4.243-.018.195-.027.4-.027.61a8.486,8.486,0,0,0,.052.941C32.634,32.32,29.9,29.8,29.9,27.082M50.74,31.865c1.394,2.2,2.485,2.168,4.133,2.168a11.784,11.784,0,0,1-2.695-3.066l-2.546-4.074a6.026,6.026,0,0,0-1.874-3.31,3.27,3.27,0,0,0,.764-.379c-1.663,0-3.31-.844-4.217-.844a.852.852,0,0,0-.957.809c.037.513.565,1.035,1.541,1.035a5.2,5.2,0,0,0,.814-.08,3.878,3.878,0,0,1,.955,2.353c0,1.784-2.132,3.174-4.285,3.174-.123,0-.238-.005-.359-.014a4.833,4.833,0,0,1-.844-2.029c0-1.417.925-2.575.925-3.979a2.632,2.632,0,0,0-.588-1.638,2.489,2.489,0,0,0,.621-.753,1.524,1.524,0,0,1-.6.075c-1.032,0-1.874-.268-2.693-.268-.468,0-.594.144-.594.282a.31.31,0,0,0,.02.127,2.761,2.761,0,0,0-.532-.148,4.158,4.158,0,0,0-.78-.069c-1,0-1.351.418-1.351.776a3.039,3.039,0,0,0,.509,1.277,3.018,3.018,0,0,1,1.068-.328c.53,0,1,.5,1.249,1.1a4.7,4.7,0,0,1-.783.059,5.977,5.977,0,0,1-1.767-.347c-.012,0-.038.007-.038.029,0,.136.275.5.817.693a10.7,10.7,0,0,0,1.963.4.855.855,0,0,1-.384.434.22.22,0,0,1-.127,0,8.93,8.93,0,0,1-1.9-.569c-.029-.011-.046.007-.046.037,0,.374.969,1.2,1.838,1.518a9.718,9.718,0,0,0-2.059,3.318c-.121.008-.238.014-.359.014-2.153,0-4.285-1.39-4.285-3.174a3.878,3.878,0,0,1,.955-2.353,5.184,5.184,0,0,0,.814.08c.976,0,1.5-.522,1.543-1.035a.852.852,0,0,0-.959-.809c-.907,0-2.553.844-4.218.844a3.326,3.326,0,0,0,.764.379,6.032,6.032,0,0,0-1.872,3.31l-2.546,4.074a11.769,11.769,0,0,1-2.7,3.066c1.648,0,2.74.037,4.134-2.168l1.306-2.089a5.639,5.639,0,0,0,.355.794l-2.6,4.154a11.738,11.738,0,0,1-2.7,3.066c1.648,0,2.74.038,4.134-2.165l2.234-3.578c.167.178.343.353.528.519l-3.154,5.049a11.656,11.656,0,0,1-2.695,3.064c1.648,0,2.74.039,4.133-2.165l3.075-4.922c.2.128.41.252.625.369L28.7,39.967a11.721,11.721,0,0,1-2.695,3.064c1.648,0,2.74.038,4.134-2.165l3.864-6.186c.229.087.46.172.7.246l-4.367,6.989a11.78,11.78,0,0,1-2.693,3.064c1.646,0,2.74.038,4.133-2.165l4.654-7.448c.048.008.094.015.14.025a3.866,3.866,0,0,1,.215,1.153c0,2.341-1.536,4.408-3.38,6a1.471,1.471,0,0,0,.513.069,4.794,4.794,0,0,0,.8-.05,19.008,19.008,0,0,1-1.808,2.873,13.458,13.458,0,0,0-2.056-.193c-.6,0-.67.351-.67.666a1.581,1.581,0,0,0,.553,1.223c.112-.279.336-.652,1.447-.652.022,0,.06,0,.112.007-.324.361-1.341,1.183-1.341,1.845a1.214,1.214,0,0,0,1.114,1.1,1.389,1.389,0,0,1-.033-.369,2.855,2.855,0,0,1,.877-1.6,1.906,1.906,0,0,0-.005.27c0,1.268.114,1.85.919,1.85a1.283,1.283,0,0,0,.761-.282,1.726,1.726,0,0,1-.55-1.57c0-.185,0-.366.005-.615a3.453,3.453,0,0,0-.027-.534,3.7,3.7,0,0,1,.626-.039s1.142-.091,1.419.5c.31-.285.761-.686.761-1.129,0-.293-.139-.624-.728-.624-.223,0-.925.136-1.511.136A14.793,14.793,0,0,1,36.048,43.3a1.7,1.7,0,0,0,.554.856,6.051,6.051,0,0,1,1.074-2.881,14.14,14.14,0,0,1,.2,2.508c0,3.151-.757,5.478-2.365,5.922a1.379,1.379,0,0,0,1.111.692c.588,0,.908-.666,1.235-1.294.17.463.64,1.6,1.111,1.6s.942-1.136,1.112-1.6c.325.628.647,1.294,1.235,1.294a1.379,1.379,0,0,0,1.111-.692c-1.608-.444-2.367-2.771-2.367-5.922a14.14,14.14,0,0,1,.2-2.508,6.008,6.008,0,0,1,1.074,2.881A1.688,1.688,0,0,0,41.9,43.3a14.909,14.909,0,0,1,1.468,2.121c-.587,0-1.289-.136-1.511-.136-.588,0-.727.331-.727.624,0,.443.451.844.761,1.129.274-.6,1.419-.5,1.419-.5a3.717,3.717,0,0,1,.626.039,3.292,3.292,0,0,0-.027.534c0,.249,0,.43,0,.615a1.726,1.726,0,0,1-.55,1.57,1.283,1.283,0,0,0,.761.282c.8,0,.92-.583.92-1.85a2.114,2.114,0,0,0-.007-.27,2.855,2.855,0,0,1,.877,1.6,1.291,1.291,0,0,1-.034.369A1.215,1.215,0,0,0,47,48.334c0-.662-1.017-1.484-1.344-1.845.053,0,.091-.007.112-.007,1.112,0,1.337.373,1.449.652a1.581,1.581,0,0,0,.553-1.223c0-.315-.068-.666-.67-.666a13.474,13.474,0,0,0-2.056.193,19.008,19.008,0,0,1-1.808-2.873,4.806,4.806,0,0,0,.8.05,1.466,1.466,0,0,0,.513-.069c-1.844-1.6-3.38-3.663-3.38-6a3.866,3.866,0,0,1,.215-1.153c.045-.01.094-.016.14-.025l4.654,7.448c1.393,2.2,2.486,2.165,4.133,2.165a11.78,11.78,0,0,1-2.693-3.064l-4.368-6.989c.237-.075.47-.159.7-.246l3.863,6.186c1.394,2.2,2.486,2.165,4.134,2.165a11.721,11.721,0,0,1-2.695-3.064l-3.753-6.006c.212-.117.421-.241.622-.369l3.076,4.922c1.394,2.2,2.485,2.165,4.133,2.165a11.682,11.682,0,0,1-2.695-3.064l-3.154-5.049c.185-.166.362-.34.527-.519l2.237,3.578c1.393,2.2,2.485,2.165,4.133,2.165a11.738,11.738,0,0,1-2.7-3.066l-2.6-4.154a5.971,5.971,0,0,0,.355-.794Z" transform="translate(-23.073 -21.044)"/><path d="M57.266,49.233H52.5V22h4.766Z" transform="translate(-12.431 -20.698)"/><path d="M57.266,69.233H52.5V42h4.766Z" transform="translate(-12.431 -13.466)" fill="red"/><path d="M57.266,89.233H52.5V62h4.766Z" transform="translate(-12.431 -6.233)" fill="#fc0"/></g></g></g></svg>