<?xml version="1.0" encoding="UTF-8" standalone="no"?>
<!-- Created with Inkscape (http://www.inkscape.org/) -->

<svg
   version="1.1"
   id="svg69"
   xml:space="preserve"
   width="297.46988"
   height="24.917868"
   viewBox="0 0 297.46988 24.917868"
   sodipodi:docname="DT_Logotype_1Line_Black_CMYK.svg"
   inkscape:version="1.1.1 (3bf5ae0d25, 2021-09-20)"
   xmlns:inkscape="http://www.inkscape.org/namespaces/inkscape"
   xmlns:sodipodi="http://sodipodi.sourceforge.net/DTD/sodipodi-0.dtd"
   xmlns="http://www.w3.org/2000/svg"
   xmlns:svg="http://www.w3.org/2000/svg"><defs
     id="defs73"><clipPath
       clipPathUnits="userSpaceOnUse"
       id="clipPath85"><path
         d="M 0,0 H 223.1024 V 18.6884 H 0 Z"
         id="path83" /></clipPath></defs><sodipodi:namedview
     id="namedview71"
     pagecolor="#ffffff"
     bordercolor="#666666"
     borderopacity="1.0"
     inkscape:pageshadow="2"
     inkscape:pageopacity="0.0"
     inkscape:pagecheckerboard="0"
     showgrid="false"
     inkscape:zoom="4.1752126"
     inkscape:cx="148.61519"
     inkscape:cy="12.57421"
     inkscape:window-width="1920"
     inkscape:window-height="1137"
     inkscape:window-x="1912"
     inkscape:window-y="-8"
     inkscape:window-maximized="1"
     inkscape:current-layer="g75" /><g
     id="g75"
     inkscape:groupmode="layer"
     inkscape:label="DT_Logotype_1Line_Black_CMYK"
     transform="matrix(1.3333333,0,0,-1.3333333,0,24.917867)"><g
       id="g77" /><g
       id="g79"><g
         id="g81"
         clip-path="url(#clipPath85)"><path
           d="M 139.0022,17.3862 V 15.237 h 4.2015 V 1.3022 h 2.4868 V 15.237 h 4.2503 v 2.1492 z"
           style="fill:#231f20;fill-opacity:1;fill-rule:nonzero;stroke:none"
           id="path87" /><path
           d="M 173.9602,17.3987 V 8.0038 c 0,-2.391 0.0966,-3.067 0.5071,-4.009 C 175.3364,2.1112 177.3889,1 180.0209,1 c 2.632,0 4.6845,1.1112 5.5539,2.9948 0.4105,0.9179 0.5072,1.618 0.5072,4.009 v 9.3949 h -2.4874 V 8.0523 c 0,-1.7149 -0.0482,-2.2703 -0.2654,-2.874 -0.4348,-1.2558 -1.6421,-2.0047 -3.3083,-2.0047 -1.5213,0 -2.7042,0.6279 -3.1873,1.7147 -0.3138,0.6763 -0.3863,1.2316 -0.3863,3.164 v 9.3464 z"
           style="fill:#231f20;fill-opacity:1;fill-rule:nonzero;stroke:none"
           id="path89" /><path
           d="m 204.2319,12.6649 c -0.335,3.2181 -2.327,5.0235 -5.4913,5.0235 -1.6659,0 -3.2357,-0.6038 -4.4186,-1.6665 -1.6183,-1.4972 -2.4633,-3.816 -2.4633,-6.7141 0,-5.0474 2.7286,-8.3078 6.9786,-8.3078 3.3809,0 5.3532,2.0667 5.6395,5.8757 l -2.2592,0.1624 c -0.2415,-2.5606 -1.4247,-3.8645 -3.4529,-3.8645 -2.656,0 -4.2981,2.3669 -4.2981,6.1586 0,3.7916 1.6421,6.1826 4.2499,6.1826 1.8108,0 2.9458,-1.0145 3.3322,-2.9948 h 0.1689 z"
           style="fill:#231f20;fill-opacity:1;fill-rule:nonzero;stroke:none"
           id="path91" /><path
           d="m 218.6781,17.3862 -5.2424,-6.4502 h -0.9791 v 6.4502 h -2.484 V 1.3019 h 2.484 v 7.4874 h 0.7957 l 5.5948,-7.4874 h 3.2553 l -6.7763,8.5606 6.27,7.5237 z"
           style="fill:#231f20;fill-opacity:1;fill-rule:nonzero;stroke:none"
           id="path93" /><path
           d="m 156.5452,1.3022 h 2.4837 v 6.4627 h 2.4835 l 3.6411,-6.4627 h 2.9421 l -3.9549,6.872 c 2.0256,0.8201 3.0625,2.3397 3.0625,4.4374 0,1.8567 -0.9159,3.4001 -2.4355,4.1235 -1.0848,0.5063 -2.0977,0.6509 -4.7738,0.6509 -1.1322,-0.0017 -2.4016,0.0266 -3.4487,-0.2396 z m 3.4722,13.9379 c 2.1464,0 2.6767,-0.0725 3.3517,-0.4104 0.7959,-0.3855 1.254,-1.1815 1.254,-2.1943 0,-1.1815 -0.5788,-2.0736 -1.5673,-2.4356 -0.6508,-0.2409 -1.1814,-0.2891 -2.9177,-0.2891 h -1.1092 v 5.3291 z"
           style="fill:#231f20;fill-opacity:1;fill-rule:nonzero;stroke:none"
           id="path95" /><path
           d="m 39.389,1.3019 h 2.5081 V 17.386 H 39.389 Z"
           style="fill:#231f20;fill-opacity:1;fill-rule:nonzero;stroke:none"
           id="path97" /><path
           d="M 75.846,17.386 V 1.3019 h 9.3229 l 0.1542,2.1461 h -6.9208 v 13.938 z"
           style="fill:#231f20;fill-opacity:1;fill-rule:nonzero;stroke:none"
           id="path99" /><path
           d="m 94.6561,10.7064 v 4.5332 h 7.0413 l -0.1539,2.1464 H 92.1721 V 1.3019 h 9.5644 l 0.1539,2.1461 H 94.6561 V 8.56 h 4.3866 v 2.1464 z"
           style="fill:#231f20;fill-opacity:1;fill-rule:nonzero;stroke:none"
           id="path101" /><path
           d="M 24.2637,17.3857 18.7664,1.3019 h 2.5577 l 1.2065,3.7641 h 5.8631 l 1.1821,-3.7641 h 2.5821 L 26.6765,17.3857 Z M 27.7423,7.2133 h -4.5601 l 2.2683,7.2382 z"
           style="fill:#231f20;fill-opacity:1;fill-rule:nonzero;stroke:none"
           id="path103" /><path
           d="M 51.438,17.3823 50.4881,1.3056 h 2.2895 l 0.7906,12.6901 4.7512,-12.6901 h 1.2775 l 4.7753,12.6901 0.79,-12.6901 h 2.2898 l -0.9499,16.0767 h -3.2235 l -4.3203,-11.376 -4.2727,11.376 z"
           style="fill:#231f20;fill-opacity:1;fill-rule:nonzero;stroke:none"
           id="path105" /><path
           d="m 108.9717,1.3019 h 2.4837 v 6.4627 h 2.4834 l 3.6411,-6.4627 h 2.9421 l -3.9549,6.872 c 2.0256,0.8201 3.0625,2.3397 3.0625,4.4374 0,1.8567 -0.9158,3.4001 -2.4355,4.1235 -1.0848,0.5063 -2.0976,0.6509 -4.7738,0.6509 -1.1322,-0.0017 -2.4015,0.0266 -3.4486,-0.2396 z m 3.4721,13.9379 c 2.1464,0 2.6768,-0.0725 3.3517,-0.4104 0.796,-0.3855 1.254,-1.1815 1.254,-2.1943 0,-1.1815 -0.5788,-2.0736 -1.5672,-2.4355 -0.6509,-0.241 -1.1815,-0.2892 -2.9177,-0.2892 h -1.1092 v 5.3292 z"
           style="fill:#231f20;fill-opacity:1;fill-rule:nonzero;stroke:none"
           id="path107" /><path
           d="M 1,17.1487 V 1.3022 h 2.918 c 3.352,0 4.4532,0.1839 5.8116,0.9405 2.2337,1.2447 3.5382,3.9277 3.5382,7.1107 0,3.2074 -1.3907,5.9978 -3.6831,7.2218 C 8.3587,17.23 6.9803,17.3857 4.2556,17.3857 3.327,17.3857 1.8586,17.3789 1,17.1487 Z M 3.484,3.4483 v 11.8488 h 0.6993 c 2.6286,0 3.3038,-0.0981 4.2684,-0.6993 1.4698,-0.9167 2.236,-2.8329 2.236,-5.2203 0,-2.3873 -0.7166,-4.2664 -2.0673,-5.1573 C 7.7051,3.6167 6.8842,3.4483 4.7862,3.4483 Z"
           style="fill:#231f20;fill-opacity:1;fill-rule:nonzero;stroke:none"
           id="path109" /></g></g></g></svg>
