<svg xmlns="http://www.w3.org/2000/svg" xmlns:xlink="http://www.w3.org/1999/xlink" version="1.1" id="layer" x="0px" y="0px" style="enable-background:new 0 0 652 652;" xml:space="preserve" viewBox="21.9 200 600 241.9">
<style type="text/css">
	.st0{fill:#FCCF00;}
	.st1{fill:#D7000F;}
	.st2{fill:#888888;}
	.st3{fill:#009A5E;}
	.st4{fill:#FFFFFF;}
</style>
<path d="M312.7,333.4h-12.2v8.2h11v5.5h-11v10.7H294v-30.1h18.7V333.4z M343,327.7h-6.4v17.7c0,4.7-2.2,7.3-6.1,7.3  c-3.9,0-6.2-2.6-6.2-7.3v-17.7h-6.5v17.6c0,8.6,4.5,13.1,12.5,13.1c8.2,0,12.7-4.6,12.7-13.1V327.7z M367.3,331.6  c-1.7-2.3-4.5-4.5-9.5-4.5c-5.9,0-9.8,3.6-9.8,8.6c0,5.4,3.5,7.7,8,9.5c3.4,1.3,4.7,2.4,4.7,4.6c0,1.8-1.4,3-4.2,3  c-3.3,0-5.1-2.3-6-3.6l-3.9,4.3c1.6,2.4,4.6,5.1,10.1,5.1c6.9,0,10.8-4.1,10.8-9.2c0-5.2-2.7-7.2-7.6-9.3c-3.9-1.7-5.4-2.4-5.4-4.6  c0-1.7,1.4-2.7,3.5-2.7c2.9,0,4.5,1.7,5.3,2.9L367.3,331.6z M391,331.6c-1.7-2.3-4.5-4.5-9.5-4.5c-5.9,0-9.8,3.6-9.8,8.6  c0,5.4,3.5,7.7,8,9.5c3.4,1.3,4.7,2.4,4.7,4.6c0,1.8-1.4,3-4.2,3c-3.3,0-5.1-2.3-6-3.6l-3.9,4.3c1.6,2.4,4.6,5.1,10.1,5.1  c6.9,0,10.8-4.1,10.8-9.2c0-5.2-2.7-7.2-7.6-9.3c-3.9-1.7-5.4-2.4-5.4-4.6c0-1.7,1.4-2.7,3.5-2.7c2.9,0,4.5,1.7,5.3,2.9L391,331.6z   M406.3,345.1c3.3,0,5,1.3,5,3.6c0,2.3-1.7,3.6-4.9,3.6h-3.6v-7.2H406.3 M405.9,333.2c3,0,4.5,1.1,4.5,3.4c0,2.2-1.6,3.6-4.5,3.6  h-3.1v-7H405.9 M406.7,357.8c7.3,0,11-3.3,11-8.3c0-4-2.8-6.4-5.9-7v-0.1c2.8-0.8,4.8-3.1,4.8-6.9c0-4.8-3.5-7.8-10.6-7.8h-9.8v30.1  H406.7 M433.5,337.6L433.5,337.6l3.5,9.2h-6.8L433.5,337.6z M441.1,357.8h7.1l-12.1-30.1h-6.9l1.1,2.7l-11.1,27.5h6.8l2.2-5.9h10.7  L441.1,357.8z M457.9,327.7h-6.5v30.1h17.5V352h-11V327.7z M479.2,327.7h-6.5v30.1h17.5V352h-11V327.7z M490.2,345.4h11.4v-5.2  h-11.4V345.4z M517.2,345.1c3.3,0,5,1.3,5,3.6c0,2.3-1.7,3.6-4.9,3.6h-3.6v-7.2H517.2 M516.8,333.2c3,0,4.5,1.1,4.5,3.4  c0,2.2-1.6,3.6-4.5,3.6h-3.1v-7H516.8 M517.6,357.8c7.3,0,11-3.3,11-8.3c0-4-2.7-6.4-5.9-7v-0.1c2.8-0.8,4.8-3.1,4.8-6.9  c0-4.8-3.5-7.8-10.6-7.8h-9.8v30.1H517.6 M558.2,327.7h-6.4v17.7c0,4.7-2.2,7.3-6.1,7.3c-3.9,0-6.2-2.6-6.2-7.3v-17.7H533v17.6  c0,8.6,4.5,13.1,12.5,13.1c8.2,0,12.7-4.6,12.7-13.1V327.7z M570.9,339.5L570.9,339.5l12.7,18.3h5.9v-30.1H583v18.4h0l-12.8-18.4  h-7.8l2.1,3.1v27.1h6.4V339.5z M605.8,333.4c6,0,9.4,3.4,9.4,9.1c0,6-3.3,9.5-9.4,9.5h-3.5v-18.6H605.8 M605.5,357.8  c10.4,0,16.4-5.7,16.4-15.3c0-9.3-6-14.8-16.4-14.8h-9.7v30.1H605.5 M304.1,289.9c6,0,9.4,3.4,9.4,9.1c0,6-3.3,9.5-9.4,9.5h-3.5  v-18.6H304.1 M303.7,314.3c10.4,0,16.4-5.7,16.4-15.3c0-9.3-6-14.8-16.4-14.8H294v30.1H303.7 M344.2,284.2h-19.4v30.1h19.8v-5.8  h-13.3v-6.8h11.2v-5.4h-11.2v-6.6h12.8V284.2z M374.5,284.2h-6.4v17.7c0,4.7-2.2,7.3-6.1,7.3c-3.9,0-6.2-2.6-6.2-7.3v-17.7h-6.5  v17.6c0,8.6,4.5,13.1,12.5,13.1c8.2,0,12.7-4.6,12.7-13.1V284.2z M402.2,284.2h-23.7v5.7h8.6v24.4h6.5v-24.4h8.6V284.2z M424.8,288  c-1.7-2.3-4.5-4.5-9.5-4.5c-5.9,0-9.8,3.6-9.8,8.6c0,5.4,3.5,7.7,8,9.5c3.4,1.3,4.7,2.4,4.7,4.6c0,1.8-1.4,3-4.2,3  c-3.3,0-5.1-2.3-6-3.6l-3.9,4.3c1.6,2.4,4.6,5.1,10.1,5.1c6.9,0,10.8-4.1,10.8-9.2c0-5.2-2.7-7.2-7.6-9.3c-3.9-1.7-5.4-2.4-5.4-4.6  c0-1.7,1.4-2.7,3.5-2.7c2.9,0,4.5,1.7,5.3,2.9L424.8,288z M455.8,288.9c-2.4-3.4-6-5.4-11.5-5.4c-9.1,0-15.6,6.4-15.6,15.6  c0,9.7,6.2,15.8,15.5,15.8c5.9,0,9.4-2.4,11.8-5.7l-4.4-3.8c-1.4,2.1-3.5,3.6-7.3,3.6c-5.3,0-8.9-4-8.9-10c0-5.9,3.6-9.7,9-9.7  c3,0,5.3,1.2,6.8,3.6L455.8,288.9z M484.4,284.2h-6.5v12.1h-11.7v-12.1h-6.5v30.1h6.5V302h11.7v12.3h6.5V284.2z M510.1,284.2h-19.4  v30.1h19.8v-5.8h-13.3v-6.8h11.2v-5.4h-11.2v-6.6h12.8V284.2z M524.8,289.8c3.7,0,5.7,1.7,5.7,4.5c0,3-2,4.7-5.7,4.7h-3.1v-9.2  H524.8 M521.7,314.3v-10.2h2.2l6.8,10.2h7.9l-7.9-11.1c4-1.5,6.3-4.6,6.3-9c0-6.5-4.5-10-12.4-10h-9.5v30.1H521.7z"/>
<path class="st0" d="M223.4,395.4l8.3,7.6c-12.8,13.9-28.9,24.8-46.9,31.4l-3.9-10.6C197.2,417.9,211.8,408,223.4,395.4"/>
<path class="st1" d="M172.7,426.6l3.1,10.8c-10.5,2.9-21.5,4.5-32.9,4.5c-11.4,0-22.4-1.6-32.8-4.5l3.1-10.8  c9.5,2.7,19.4,4.1,29.8,4.1C153.2,430.7,163.2,429.3,172.7,426.6"/>
<path d="M104.9,424l-3.9,10.6c-18.1-6.7-34.1-17.5-47-31.4l8.3-7.6C73.9,408.1,88.5,417.9,104.9,424"/>
<path class="st2" d="M229,388.9c14.7-18.7,23.5-42.3,23.5-67.9c0-60.6-49.1-109.7-109.7-109.7c-60.6,0-109.7,49.1-109.7,109.7  c0,25.7,8.8,49.3,23.6,67.9l-8.8,7c-16.3-20.6-26-46.6-26-74.9c0-66.8,54.2-121,121-121c66.8,0,121,54.2,121,121  c0,28.3-9.7,54.3-25.9,74.9L229,388.9z"/>
<path class="st3" d="M241.2,321c0,54.3-44,98.3-98.3,98.3c-54.3,0-98.3-44-98.3-98.3c0-54.3,44-98.3,98.3-98.3  C197.1,222.7,241.2,266.7,241.2,321"/>
<path class="st4" d="M118.8,348.8l-21.7,12.7L97,280.9l21.8,12.6V348.8z M230.7,300.9l-56.3-32.6v16.4l28.4,16.2L133,340.6v-39.1  l29.5,17.1V303l-29.5-17v-25.1l29.5,17v-16.5l-43.7-25.2v41.6l-36-20.8l-0.1,129.1l36.1-20.8V407l14.2-8.2v-41.7l48.1-27.7l21.8,13  l-57.8,33v16.4l85.6-49.4L195,321.4L230.7,300.9z"/>
</svg>