<?xml version="1.0" encoding="UTF-8" standalone="no"?>
<!-- Creator: CorelDRAW -->
<svg
   xmlns:dc="http://purl.org/dc/elements/1.1/"
   xmlns:cc="http://web.resource.org/cc/"
   xmlns:rdf="http://www.w3.org/1999/02/22-rdf-syntax-ns#"
   xmlns:svg="http://www.w3.org/2000/svg"
   xmlns="http://www.w3.org/2000/svg"
   xmlns:sodipodi="http://sodipodi.sourceforge.net/DTD/sodipodi-0.dtd"
   xmlns:inkscape="http://www.inkscape.org/namespaces/inkscape"
   xml:space="preserve"
   width="508.24652"
   height="148.34349"
   shape-rendering="geometricPrecision"
   text-rendering="geometricPrecision"
   image-rendering="optimizeQuality"
   fill-rule="evenodd"
   clip-rule="evenodd"
   viewBox="0 0 240 73.8462"
   id="svg2002"
   sodipodi:version="0.32"
   inkscape:version="0.44"
   sodipodi:docname="EON.svg"
   sodipodi:docbase="C:\Dokumente und Einstellungen\Andreas\Eigene Dateien\Eigene Bilder\sonstiges\Logos\Vektor"
   version="1.0"><metadata
   id="metadata2011"><rdf:RDF><cc:Work
       rdf:about=""><dc:format>image/svg+xml</dc:format><dc:type
         rdf:resource="http://purl.org/dc/dcmitype/StillImage" /></cc:Work></rdf:RDF></metadata><defs
   id="defs2009" /><sodipodi:namedview
   inkscape:window-height="574"
   inkscape:window-width="904"
   inkscape:pageshadow="2"
   inkscape:pageopacity="0.0"
   guidetolerance="10.0"
   gridtolerance="10.0"
   objecttolerance="10.0"
   borderopacity="1.0"
   bordercolor="#666666"
   pagecolor="#ffffff"
   id="base"
   inkscape:zoom="0.96308336"
   inkscape:cx="425.19684"
   inkscape:cy="79.724411"
   inkscape:window-x="69"
   inkscape:window-y="69"
   inkscape:current-layer="svg2002" />
 <g
   id="Ebene_x0020_1"
   transform="translate(-6.041939e-2,0.147204)">
  <metadata
   id="CorelCorpID_0Corel-Layer" />
  <path
   d="M 163.113,27.9046 C 163.113,35.55506 158.34623,45.6065 154.90094,52.2472 C 149.48949,62.697 142.16874,68.9588 130.26514,69.6973 C 119.74364,70.349977 95.96424,72.17656 100.13024,54.4468 C 101.93676,46.77135 105.95116,40.009 108.41578,32.5971 C 116.69713,16.0737 137.53778,12.9239 154.09458,17.0532 C 159.69889,19.09209 162.68178,21.82071 163.11304,27.9045 L 163.113,27.9046 z M 135.3242,28.637892 C 126.81392,28.637892 125.77749,40.517292 124.1796,46.894792 C 123.77849,49.305012 121.07966,57.379592 125.426,57.379592 C 135.6582,59.437442 136.6098,48.214542 138.3306,40.735792 C 138.96346,37.984412 140.21811,33.368282 139.65035,30.544192 C 139.65035,28.443642 136.72124,28.778282 135.3242,28.637972 L 135.3242,28.637892 z M 76.7412,29.151246 C 75.69123,49.270646 61.56,47.704946 44.7732,47.628046 C 38.39363,47.601707 31.8696,47.188169 25.5631,47.188169 C 23.23596,49.548539 29.97344,56.707799 31.86882,57.892869 C 38.33885,61.923519 46.45702,60.192929 51.66552,54.959819 C 54.46367,54.959819 84.49812,51.034159 74.10172,61.412249 C 69.06984,65.889419 61.95072,68.533849 55.47792,70.064189 C 34.88282,74.934589 -9.60488,63.094959 5.39992,34.063489 C 15.65712,17.181789 37.87362,7.950589 56.21122,3.195689 C 57.91867,2.854151 59.60556,2.591258 61.34377,2.462397 C 74.39057,1.488243 76.74117,19.494397 76.74117,29.151297 L 76.7412,29.151246 z M 57.6045,27.538076 C 57.6045,25.718386 57.678961,23.794196 57.091146,22.038996 C 55.077486,13.926016 33.948646,31.250686 31.428946,33.770396 C 31.112638,34.407442 31.351654,34.210027 31.795469,34.430334 C 38.807529,34.430334 45.835969,34.356857 52.838469,34.356857 C 57.450039,33.595749 57.604499,32.192177 57.604499,27.538027 L 57.6045,27.538076 z M 98.2975,37.876276 C 96.70784,41.077996 97.06292,45.278126 93.82476,47.701136 C 89.39645,51.014486 78.24176,51.023476 80.70046,43.008826 C 83.02797,35.389506 87.42858,32.148926 95.43796,34.136946 C 97.39168,34.791223 97.8531,36.085376 98.29753,37.876266 L 98.2975,37.876276 z M 237.7535,27.977936 C 237.7535,30.029016 237.32322,32.143716 236.87362,34.136956 C 234.22685,45.835756 229.95916,56.965856 226.16862,68.231156 C 222.69071,71.708936 215.46102,69.815156 211.72442,67.571218 C 209.85537,65.702048 214.50153,56.165018 215.24393,53.860118 C 216.38251,50.320298 222.60381,37.267018 217.37008,34.650418 C 215.68651,34.650418 214.34768,34.870726 212.67777,35.310233 C 197.01577,40.793433 185.89917,56.736333 174.62427,68.011233 C 169.73738,70.472033 166.22796,69.842253 161.42657,67.424771 C 160.95026,66.948463 161.18091,66.191541 161.27962,65.591541 C 164.91297,50.416641 170.65907,35.371241 176.89702,21.085841 C 177.87843,18.169161 187.96242,19.249901 190.46162,20.499379 C 190.46162,23.729779 190.12254,29.151319 194.7874,29.151319 C 205.2529,27.997839 230.8963,5.280719 237.3867,24.752059 C 237.5707,25.851509 237.75359,26.848059 237.75359,27.978029 L 237.7535,27.977936 z "
   id="path2006"
   style="fill:#f21c0a" />
 </g>
</svg>