<?xml version="1.0" encoding="utf-8"?>
<!-- Generator: Adobe Illustrator 25.2.2, SVG Export Plug-In . SVG Version: 6.00 Build 0)  -->
<svg version="1.1" id="Ebene_1" xmlns="http://www.w3.org/2000/svg" xmlns:xlink="http://www.w3.org/1999/xlink" x="0px" y="0px"
	 viewBox="0 0 1500 1500.1" style="enable-background:new 0 0 1500 1500.1;" xml:space="preserve">
<style type="text/css">
	.st0{fill:#337078;}
	.st1{fill:#FFFFFF;}
	.st2{fill:#E55550;}
</style>
<g>
	<path class="st0" d="M1500,750c0,19.9-0.8,39.7-2.3,59.2c-2.8,36.6-8.3,72.5-16.3,107.4c-16.8,74-44.5,143.8-81.3,207.7
		c-66.2,114.8-162,210.4-277,276.5c-98.5,56.6-211.2,91.5-331.3,98.1c-13.8,0.8-27.8,1.2-41.8,1.2c-14.1,0-28.1-0.4-42-1.2
		c-107.9-6-209.8-34.7-300.8-81.6c-2.1-1.1-4.1-2.1-6.1-3.2c-0.3-0.2-0.7-0.4-1-0.6c-8.6-4.5-17-9.2-25.4-14c-0.1,0-0.1,0-0.2-0.1
		c-2-1.1-3.9-2.3-5.9-3.4c-0.4-0.2-0.7-0.4-1.1-0.7c-110.8-65.8-203.2-159.3-267.6-271C63,1060.4,35.3,990.6,18.5,916.6
		C6.4,863,0,807.3,0,750c0-8.5,0.2-17,0.5-25.4v-0.1c0.4-10.9,0.9-21.6,1.7-32.3v-0.1V692c2.8-37,8.3-73.3,16.4-108.6
		c16.8-74,44.5-143.8,81.3-207.7c65.8-114,160.7-209.2,274.6-275.1C473.6,43.1,587.1,7.8,708.3,1.2C722.1,0.4,736,0,750,0
		s28,0.4,41.8,1.2c120.2,6.6,232.8,41.5,331.3,98.1c114.9,66.1,210.8,161.7,277,276.5c36.9,63.9,64.6,133.7,81.3,207.7
		c8,34.9,13.4,70.8,16.3,107.3C1499.3,710.3,1500,730.1,1500,750"/>
	<path class="st1" d="M644.6,694.2c15.8,8.4,28.2,20.7,37.2,36.7c8.9,16.1,13.4,35.3,13.4,57.7v109.1c0,4.5-1.5,8.3-4.6,11.3
		c-3.1,3.1-6.9,4.6-11.3,4.6c-4.7,0-8.7-1.5-11.7-4.6c-3.1-3.1-4.6-6.9-4.6-11.3V788.6c0-24.9-6.9-43.9-20.8-56.9
		s-32-19.5-54.4-19.5c-13.7,0-26.1,2.7-37.1,8c-11.1,5.3-19.8,12.7-26.2,22c-6.5,9.4-9.7,19.8-9.7,31.3v124.2
		c0,4.7-1.5,8.6-4.4,11.5c-2.9,2.9-6.8,4.4-11.5,4.4s-8.7-1.5-11.7-4.4c-3.1-2.9-4.6-6.8-4.6-11.5V700.5c0-4.8,1.5-8.7,4.6-11.7
		c3.1-3.1,7-4.7,11.7-4.7s8.6,1.6,11.5,4.7c2.9,3.1,4.4,7,4.4,11.7v14.2c9.2-10.3,20.4-18.5,33.6-24.3c13.2-5.9,27.4-8.8,42.8-8.8
		C611,681.6,628.8,685.8,644.6,694.2"/>
	<path class="st1" d="M876.9,886c2.8,3.1,4.2,7,4.2,11.8c0,4.5-1.7,8.3-5,11.4c-3.4,3.1-7.6,4.6-12.6,4.6h-8.8
		c-14.9,0-28.1-3.5-39.9-10.7c-11.8-7.1-20.9-16.8-27.5-29c-6.5-12.2-9.8-25.9-9.8-41.4v-112h-27.4c-4.5,0-8.1-1.3-10.7-4
		c-2.6-2.7-4-6-4-9.9c0-4.2,1.3-7.6,4-10.3s6.2-4,10.7-4h27.3v-65c0-4.8,1.5-8.7,4.4-11.7c2.9-3.1,6.8-4.7,11.5-4.7
		c4.7,0,8.6,1.5,11.8,4.7c3.1,3.1,4.6,7,4.6,11.7v65h47.4c4.5,0,8,1.3,10.7,4c2.6,2.7,3.9,6.1,3.9,10.3c0,3.9-1.3,7.2-3.9,9.9
		c-2.7,2.7-6.3,4-10.7,4h-47.4v112c0,14.3,4.2,26,12.6,35.1c8.4,9.1,19.2,13.6,32.3,13.6h11.3C870.4,881.4,874.1,882.9,876.9,886"/>
	<path class="st1" d="M1134,688.5c3.1,3,4.6,6.8,4.6,11.5v197.3c0,4.7-1.5,8.7-4.6,11.7c-3.1,3.1-7,4.6-11.8,4.6
		c-4.8,0-8.6-1.5-11.6-4.6c-2.9-3.1-4.4-7-4.4-11.7V883c-9.2,10.3-20.4,18.5-33.6,24.4c-13.1,5.9-27.4,8.8-42.8,8.8
		c-19.8,0-37.7-4.2-53.5-12.6c-15.8-8.4-28.2-20.6-37.2-36.7c-8.9-16.1-13.4-35.3-13.4-57.7V700.1c0-4.5,1.5-8.2,4.6-11.3
		c3.1-3.1,6.9-4.7,11.4-4.7c4.7,0,8.7,1.6,11.7,4.7c3.1,3.1,4.6,6.8,4.6,11.3v109.1c0,24.9,6.9,43.9,20.8,56.9
		c13.9,13,32,19.5,54.4,19.5c13.7,0,26.1-2.7,37.1-8c11.1-5.3,19.8-12.6,26.2-22c6.5-9.4,9.7-19.8,9.7-31.2V700.1
		c0-4.7,1.5-8.6,4.4-11.5c2.9-2.9,6.8-4.4,11.6-4.4C1127,684.1,1130.9,685.6,1134,688.5"/>
	<path class="st1" d="M1332.8,691.5c13.7,6.3,24.8,15,33.2,26.2c2.2,3.6,3.4,6.8,3.4,9.6c0,4.8-2.3,8.5-6.7,11.4
		c-1.9,1.4-4.6,2.1-8,2.1c-5.9,0-10.8-2.1-14.7-6.3c-13.7-15.7-32.5-23.5-56.3-23.5c-15.4,0-27.7,3.2-37,9.4
		c-9.2,6.3-13.8,14.2-13.8,23.7c0,10.1,4.3,18.1,13,24.1s24.1,10.9,46.2,14.5c29.9,5,51.3,13.2,64.2,24.6
		c12.9,11.3,19.3,25.4,19.3,42.2c0,12.9-3.9,24.4-11.6,34.4s-18.4,17.9-32.1,23.5c-13.7,5.6-29.2,8.4-46.6,8.4
		c-17.3,0-34-2.9-49.9-8.8c-16-5.9-28.8-14.1-38.6-24.8c-2.8-3.3-4.2-6.5-4.2-9.6c0-4.7,2.3-9,6.7-12.6c3.3-2.5,6.9-3.7,10.5-3.7
		c4.7,0,8.8,1.9,12.2,5.9c6.7,7.8,15.6,13.8,26.7,18c11,4.2,23.3,6.3,36.7,6.3c19.6,0,34.3-3.4,44.1-10.1s14.8-15.5,15.1-26.4
		c0-10.1-4.9-18.5-14.7-25.2c-9.8-6.7-25.3-11.8-46.6-15.1c-27.4-4.5-47.9-12.3-61.5-23.3c-13.6-11.1-20.3-24.4-20.3-40.1
		c0-20.4,7.9-36.2,23.7-47.4c15.8-11.3,35.6-16.9,59.4-16.9C1303,682,1319.1,685.2,1332.8,691.5"/>
	<path class="st1" d="M391.6,658.1c-2.1,0-4.3,0.8-5.9,2.4L345,701.2c-3.3,3.3-3.3,8.6,0,11.8l40.7,40.7c1.6,1.6,3.8,2.4,5.9,2.4
		s4.3-0.8,5.9-2.4l40.7-40.7c3.3-3.2,3.3-8.6,0-11.8l-40.7-40.7C395.9,658.9,393.8,658.1,391.6,658.1"/>
	<path class="st2" d="M407.3,784.9v632.4c-2.1-1.1-4.1-2.1-6.1-3.2c-0.3-0.2-0.7-0.4-1-0.6c-8.6-4.5-17-9.2-25.4-14V784.4
		c5.1,2.6,10.8,4.2,16.7,4.2C397,788.5,402.4,787.2,407.3,784.9"/>
	<path class="st1" d="M224.4,692.1v-9.2c0-20.4,4.7-36.8,14.1-49.1s27.9-24.9,63.8-20.1c4.7,0.6,8.7-1.4,11.7-4.2
		c3.1-2.8,4.6-6.3,4.6-10.5s-1.6-7.7-4.6-10.5c-3.1-2.8-7-3.9-11.7-4.2c-45.7-3.2-71.7,10.6-87.1,28.5
		c-15.4,17.9-23.1,41.8-23.1,71.8v7.5L224.4,692.1L224.4,692.1z"/>
	<path class="st1" d="M192.1,724.5v172.8c0,5,1.5,9,4.4,12c2.9,2.9,6.6,4.4,11.1,4.4c5.3,0,9.4-1.5,12.4-4.4c2.9-2.9,4.4-6.9,4.4-12
		V724.5H192.1z"/>
	<path class="st2" d="M310.1,707.2c0-5.3,1.2-10.4,3.3-15.1H9.4c0,0-3.4,0-7.1,0.1v0.1c-0.8,10.7-1.4,21.4-1.8,32.3h314.1
		C311.8,719.2,310.1,713.4,310.1,707.2"/>
</g>
</svg>
