<?xml version="1.0" encoding="UTF-8" standalone="no"?>
<svg
   xmlns:dc="http://purl.org/dc/elements/1.1/"
   xmlns:cc="http://creativecommons.org/ns#"
   xmlns:rdf="http://www.w3.org/1999/02/22-rdf-syntax-ns#"
   xmlns:svg="http://www.w3.org/2000/svg"
   xmlns="http://www.w3.org/2000/svg"
   viewBox="0 0 342.61334 189.30667"
   height="189.30667"
   width="342.61334"
   xml:space="preserve"
   id="svg2"
   version="1.1"><metadata
     id="metadata8"><rdf:RDF><cc:Work
         rdf:about=""><dc:format>image/svg+xml</dc:format><dc:type
           rdf:resource="http://purl.org/dc/dcmitype/StillImage" /></cc:Work></rdf:RDF></metadata><defs
     id="defs6" /><g
     transform="matrix(1.3333333,0,0,-1.3333333,0,189.30667)"
     id="g10"><g
       transform="scale(0.1)"
       id="g12"><path
         id="path14"
         style="fill:#082242;fill-opacity:1;fill-rule:nonzero;stroke:none"
         d="m 32.9414,1249.78 v 14.01 H 492.297 v 26.56 H 0 v -14.67 C 0,398.871 22.4023,121.539 492.297,121.539 v 26.77 C 54.2266,152.578 32.9414,419.621 32.9414,1249.78 Z M 358.777,189.031 309.309,364.602 118.391,427.367 C 159.766,291.672 232.336,218.059 358.777,189.031 Z M 259.063,1238.59 H 63.9258 L 278.879,1168.27 Z M 63.5859,1225.27 c 0,-65.43 0.1641,-126.82 0.6524,-185.05 l 60.4297,-19.8 -61.0821,216.87 z M 340.535,949.469 124.949,1020.31 186.309,801.637 402.09,731.074 Z M 80.4102,637.965 247.883,583.168 186.309,801.637 68.0195,840.496 c 2.5078,-74.742 6.4336,-142.043 12.3907,-202.531 z m -16.4844,600.625 -0.7891,0.27 0.4492,-1.57 v 1.3 z M 247.949,583.246 309.309,364.602 525.078,294 463.516,512.465 Z M 494.734,1097.3 279.18,1168.13 340.535,949.469 556.309,878.867 Z M 2444.18,948.344 c 0,54.816 -61.41,49.355 -101.97,49.355 h -12.66 v -97.527 h 15.84 c 36.72,0 98.79,-1.805 98.79,48.172 z M 2327.3,1101.41 h 12.45 c 39.8,0 95.37,-5.42 95.37,49.41 0,51.44 -56.21,48.17 -92.27,48.17 h -15.55 z m 69.4,-291.601 h -191.31 v 479.521 h 187.87 c 76.13,0 164.98,-37.22 164.98,-126.47 0,-58.54 -20.13,-100.15 -77.05,-112.78 61.6,-11.25 88.4,-53.572 88.4,-113.795 0,-95.156 -85.49,-126.476 -172.89,-126.476 z M 798.242,824 797.82,726.691 c 45.129,18.954 91.125,40.161 122.5,70.247 24.27,23.316 39.875,52.007 39.27,89.121 -1.016,68.195 -55.371,106.171 -118.684,134.581 -21.883,9.87 -44.922,18.6 -67.383,27.03 -7.82,2.97 -15.886,6.03 -24.05,9.18 v 362.95 h -34.715 v -348.7 c -16.926,7.47 -32.617,15.33 -44.738,23.62 -6.075,4.21 -11.18,8.46 -15.215,12.89 -5.586,6.14 -8.985,12.52 -9.09,19.07 -0.168,10.77 5.508,20.86 18.902,30.98 v 99.87 c -19.207,-9.69 -37.527,-20.09 -53.472,-31.9 -33.372,-24.79 -56.528,-55.93 -55.918,-100.4 1.043,-68.28 55.566,-106.28 119.003,-134.695 13.29,-5.969 26.903,-11.41 40.528,-16.726 V 572.477 c -17.668,7.214 -34.848,14.902 -49.094,22.996 -11.965,6.769 -21.809,13.808 -28.359,21.144 -5.371,6.055 -8.66,12.293 -8.7,18.731 -0.304,13.75 13.465,27.175 33.79,39.851 l 0.156,100.625 c -14.66,-6.984 -29.113,-14.472 -42.641,-22.719 -46.465,-28.085 -82.691,-64.808 -81.914,-119.203 1.106,-72.785 63.02,-111.191 131.731,-140.265 14.824,-6.289 30.019,-12.117 45.031,-17.782 V 0 h 34.715 v 462.594 c 17.148,-6.672 34.367,-13.77 49.668,-21.25 29.863,-14.551 52.531,-30.633 52.707,-48.035 0.308,-16.649 -19.934,-32.77 -47.16,-47.649 l 0.449,-99.781 c 39.453,17.562 77.234,37.769 103.254,65.121 21.199,22.34 34.453,49.41 33.953,83.77 -1.297,91.847 -99.434,128.886 -186.004,161.574 -2.219,0.84 -4.563,1.707 -6.867,2.547 v 401.66 c 19.699,-7.477 40.429,-15.496 59.113,-24.106 6.297,-2.925 12.437,-5.918 18.125,-9.027 11.141,-6.27 23.262,-14.629 35.098,-25.68 4.578,-5.539 7.214,-11.258 7.293,-17.125 C 869.297,866.266 829.785,840.07 798.242,824 Z M 670.676,31.0898 671.145,245.602 C 590.637,162.988 630.227,83.8281 670.676,31.0898 Z m 130.965,1261.3902 -13.223,-8.5 v -81.64 l 144.504,-62.82 43.914,-10.92 c 0,0 24.404,30.67 20.059,36.4 -121.524,159.93 -195.254,127.48 -195.254,127.48 z M 1946.27,809.418 2149.73,1285.82 H 2015.12 L 1899.49,996.453 1784.53,1285.82 H 1649.9 l 200.33,-476.402 z m -626.72,206.622 h 1.19 l 159.89,-206.622 h 160.5 l -206.62,250.832 189.51,225.57 h -153.53 l -149.75,-196.48 h -1.19 v 196.48 H 1195.68 V 809.418 h 123.87 z m 516.33,-836.642 c -17.85,5.141 -21.8,8.063 -21.8,15.723 0,8.231 7.27,13.938 17.91,13.938 11.74,0 17.62,-5.309 19.03,-16.68 h 13.3 c -0.94,18.043 -12.33,28.019 -32.17,28.019 -19.02,0 -31.99,-10.546 -31.99,-26.269 0,-12.949 6.83,-19.828 24.92,-25.527 24.37,-7.473 26.74,-9.063 26.74,-18.223 0,-10.051 -7.7,-16.508 -19.83,-16.508 -13.38,0 -20.49,6.457 -21.62,19.828 h -13.36 v -0.219 c 0,-19.82 12.78,-30.98 35.14,-30.98 20.8,0 33.77,11.16 33.77,29.02 0,5.492 -1.37,10.39 -3.93,14.339 -3.88,5.68 -9.45,8.442 -26.11,13.539 z m -101.56,41 c -12.58,0 -22.19,-5.257 -28.48,-16.078 0,6.489 -0.2,9.09 -1.78,13.551 h -13.14 c 1.97,-8.019 2.11,-9.609 2.11,-24.75 v -68.293 h 13.75 v 52.024 c 0,19.828 9.1,31.41 24.78,31.41 12.76,0 18.65,-7.653 18.65,-24.121 v -59.313 h 13.72 v 62.434 c 0,22.16 -9.81,33.136 -29.61,33.136 z m -105.71,-22.57 c 0.18,2.602 0.41,4.352 0.41,5.723 0,4.711 -0.56,9.648 -1.77,14.32 h -13.17 c 1.37,-8.449 1.58,-10.801 1.58,-25.75 v -67.293 h 13.91 v 41.594 c 0,12.398 1.21,20.25 4.14,26.699 4.1,9.238 10.59,14.379 18.03,14.379 3.53,0 6.13,-0.781 12.34,-3.75 v 13.73 c -3.87,1.969 -7.77,2.918 -11.33,2.918 -10.04,0 -17.48,-6.988 -24.14,-22.57 z m -61.17,-18 c -1.62,18.82 -10.04,29.012 -23.96,29.012 -13.54,0 -22.19,-10 -24.94,-29.012 z m 14.34,-6.906 c 0,-0.801 0,-2.152 -0.26,-3.934 h -63.38 c 0.63,-22.738 10.02,-34.726 26.92,-34.726 10.21,0 16.25,3.929 21.56,14.078 l 12.74,-1.531 c -5.63,-16.071 -17.45,-24.309 -34.5,-24.309 -24.92,0 -40.88,18.609 -40.88,47.852 0,30.476 15.77,50.046 40.06,50.046 22.76,0 37.74,-18.617 37.74,-47.476 z m -138.62,-32.594 -25.31,77.543 h -14.67 l 32.35,-94 -0.96,-2.801 c -6.87,-18.82 -11.95,-23.1403 -28.3,-23.1403 h -0.92 v -12.168 c 1.8,0 3.11,-0.1601 4.1,-0.1601 7.48,0 13.95,1.7773 19.59,4.8398 8.66,5.1602 14.12,13.3866 19.83,29.0976 l 4.14,11.762 30.64,86.57 h -14.33 z m -79.86,34.902 c -31.25,-5.621 -42.15,-12.089 -42.15,-25.07 0,-9.609 7.19,-16.289 17.93,-16.289 10.43,0 19.06,5.848 22.21,14.899 1.39,4.332 2.01,9.609 2.01,17.089 z m 13.52,-25.851 c 0,-15.309 0.19,-18.078 2.57,-24.551 h -13.14 c -1.41,4.942 -1.62,6.473 -1.95,12.59 -5.49,-10.039 -14.57,-14.918 -27.33,-14.918 -18.2,0 -30.02,10.398 -30.02,26.672 0,13.129 7.46,22.758 21.57,28.047 8.45,3.16 18.1,5.312 31.79,7.672 l 2.99,0.429 v 4.121 c 0,13.911 -5.16,19.399 -18.83,19.399 -12.18,0 -18.65,-4.86 -20.62,-15.289 h -13.73 c 1.97,17.469 14.1,26.847 34.88,26.847 15.1,0 26.09,-5.668 29.65,-15.257 1.8,-4.922 2.17,-9.243 2.17,-21 z m -114.67,12.762 c 0,10.98 -5.47,19.437 -14.9,22.398 -5.86,1.949 -10.8,2.531 -24.75,2.531 h -13.16 v -49.851 h 12.96 c 15.9,0 22.6,0.75 28.48,3.332 7.09,3.129 11.37,11.398 11.37,21.59 z m -52.81,37.257 h 12.4 c 12.71,0 18.96,1.032 24.53,4.153 6.29,3.34 9.77,10.211 9.77,18.449 0,9.09 -4.5,16.121 -11.72,18.828 -5.3,1.961 -9.87,2.391 -23.38,2.391 h -11.6 z m 68.51,-38.027 c 0,-15.949 -8.65,-28.883 -21.97,-33.18 -8.63,-2.781 -15.7,-3.363 -38.24,-3.363 h -22.78 v 130.961 h 23.71 c 17.88,0 24.93,-0.809 32.21,-3.379 12.77,-4.308 20.22,-15.101 20.22,-29.23 0,-14.899 -7.07,-24.141 -21.74,-28.629 19.35,-4.723 28.59,-15.332 28.59,-33.18 z m 905.65,222.668 c 0,11.981 -8.03,20.391 -19.83,20.391 -11.56,0 -20.02,-8.59 -20.02,-20.391 0,-11.617 8.05,-19.25 20.02,-19.25 11.99,0 19.83,7.633 19.83,19.25 z m -48.27,-75.211 c 0,-9.777 11.74,-16.277 29.57,-16.277 17.7,0 28.5,6.308 28.5,16.277 0,10.652 -10.39,16.141 -29.78,16.141 -17.66,0 -28.29,-5.918 -28.29,-16.141 z m 43.99,104.453 28.22,0.989 v -10.379 l -19.06,0.359 c 5.1,-4.66 8.1,-12.781 8.1,-21.18 0,-10.648 -4.33,-19.031 -11.83,-22.992 -4.47,-2.539 -9.85,-4.308 -18.42,-6.078 -15.72,-3.391 -19.8,-5.512 -19.8,-10.219 0,-3.953 1.95,-4.73 18.61,-6.301 20.43,-1.968 26.5,-3.308 32.6,-8 5.66,-4.339 9.2,-11.609 9.2,-19.441 0,-17.918 -16.06,-28.867 -42.17,-28.867 -25.51,0 -41.99,10.598 -41.99,26.879 0,11.238 5.86,18.058 19.61,22.969 -7.06,2.75 -9.99,5.89 -9.99,10.808 0,6.274 4.48,10.41 16.65,14.902 -12.56,5.129 -18.48,13.758 -18.48,26.918 0,19.223 13.61,31.793 34.2,31.793 5.1,0 8.98,-0.562 14.55,-2.16 z m -114.92,3.52 c -12.62,0 -22.19,-5.289 -28.5,-16.071 0,6.481 -0.19,9.008 -1.74,13.54 h -13.18 c 1.97,-8.032 2.21,-9.61 2.21,-24.719 v -68.332 h 13.69 v 52 c 0,19.84 9.04,31.441 24.74,31.441 12.76,0 18.68,-7.66 18.68,-24.191 v -59.25 h 13.71 v 62.429 c 0,22.204 -9.85,33.153 -29.61,33.153 z m -80.35,-2.531 h -13.77 v -52.758 c 0,-7.922 -0.71,-13.024 -2.48,-17.133 -3.54,-8.399 -11.2,-13.359 -20.24,-13.359 -13.98,0 -19.28,7.101 -19.28,26.281 v 56.969 h -13.53 v -56.969 c 0,-10.59 0.41,-14.66 1.97,-19.821 3.59,-11.371 15.18,-18.582 29.3,-18.582 12.01,0 19.41,4.282 24.9,14.672 0,-5.32 0.41,-8.039 1.93,-12.351 h 13.34 c -1.91,6.281 -2.14,8.261 -2.14,20.429 z m -122.64,-30.231 c 0,11.981 -8.07,20.391 -19.85,20.391 -11.56,0 -20,-8.59 -20,-20.391 0,-11.617 8.09,-19.25 20,-19.25 12,0 19.85,7.633 19.85,19.25 z m -48.28,-75.211 c 0,-9.777 11.77,-16.277 29.67,-16.277 17.63,0 28.41,6.308 28.41,16.277 0,10.652 -10.37,16.141 -29.78,16.141 -17.7,0 -28.3,-5.918 -28.3,-16.141 z m 43.94,104.453 28.3,0.989 v -10.379 l -19.06,0.359 c 5.12,-4.66 8.01,-12.781 8.01,-21.18 0,-10.648 -4.28,-19.031 -11.74,-22.992 -4.51,-2.539 -9.8,-4.308 -18.46,-6.078 -15.68,-3.391 -19.82,-5.512 -19.82,-10.219 0,-3.953 1.99,-4.73 18.67,-6.301 20.37,-1.968 26.49,-3.308 32.58,-8 5.66,-4.339 9.22,-11.609 9.22,-19.441 0,-17.918 -16.13,-28.867 -42.19,-28.867 -25.55,0 -42.01,10.598 -42.01,26.879 0,11.238 5.88,18.058 19.63,22.969 -7.07,2.75 -10.02,5.89 -10.02,10.808 0,6.274 4.53,10.41 16.64,14.902 -12.52,5.129 -18.4,13.758 -18.4,26.918 0,19.223 13.52,31.793 34.16,31.793 5.08,0 9.02,-0.562 14.49,-2.16 z m -100.19,-92.062 h 14.45 v 93.051 h -14.45 z m 7.46,132.703 h -0.7 c -5.45,-0.422 -9.56,-4.707 -9.56,-10.195 0,-5.704 4.3,-9.836 9.98,-9.836 5.9,0 10.06,4.132 10.06,9.836 0,5.886 -4.16,10.195 -9.78,10.195 z m -59.73,-73.453 v -59.25 h 13.71 v 62.429 c 0,22.204 -9.78,33.153 -29.61,33.153 -12.57,0 -22.18,-5.289 -28.47,-16.071 0,6.481 -0.2,9.008 -1.76,13.54 h -13.13 c 1.98,-8.032 2.17,-9.61 2.17,-24.719 v -68.332 h 13.67 v 52 c 0,19.84 9.09,31.441 24.83,31.441 12.71,0 18.59,-7.66 18.59,-24.191 z m -110.6,-59.25 h 14.55 v 93.051 h -14.55 z m 7.44,132.703 h -0.55 c -5.53,-0.422 -9.63,-4.707 -9.63,-10.195 0,-5.704 4.28,-9.836 10.02,-9.836 5.92,0 10,4.132 10,9.836 0,5.886 -4.08,10.195 -9.84,10.195 z m -104.3,-77.762 h 48.87 c -1.56,18.852 -10,29.09 -23.97,29.09 -13.49,0 -22.15,-10.02 -24.9,-29.09 z m 26.29,-57.262 c -24.9,0 -40.84,18.582 -40.84,47.864 0,30.429 15.76,50.078 40.02,50.078 22.81,0 37.69,-18.668 37.69,-47.559 0,-0.75 0,-2.14 -0.13,-3.902 h -63.44 c 0.65,-22.738 10.02,-34.731 26.93,-34.731 10.18,0 16.31,3.911 21.53,14.102 l 12.77,-1.57 c -5.64,-16.078 -17.4,-24.282 -34.53,-24.282 z m -97.11,2.321 v 41.609 c 0,12.371 1.19,20.242 4.08,26.723 4.22,9.179 10.61,14.34 18.13,14.34 3.53,0 6.09,-0.801 12.36,-3.743 v 13.711 c -3.96,1.969 -7.89,2.942 -11.39,2.942 -10.02,0 -17.46,-7.063 -24.16,-22.571 0.22,2.571 0.39,4.321 0.39,5.711 0,4.719 -0.6,9.649 -1.73,14.329 h -13.17 c 1.35,-8.418 1.58,-10.801 1.58,-25.692 v -67.359 z m -62.15,54.941 c -1.54,18.852 -10.02,29.09 -23.98,29.09 -13.5,0 -22.13,-10.02 -24.87,-29.09 z m 14.1,-10.781 h -63.34 c 0.57,-22.738 9.98,-34.731 26.88,-34.731 10.21,0 16.27,3.911 21.58,14.102 l 12.75,-1.57 c -5.7,-16.078 -17.44,-24.282 -34.59,-24.282 -24.9,0 -40.8,18.582 -40.8,47.864 0,30.429 15.69,50.078 40.02,50.078 22.8,0 37.78,-18.668 37.78,-47.559 0,-0.75 0,-2.14 -0.28,-3.902 z m -144.86,-27.078 -37.09,113.844 h -15.72 l 44.96,-131.715 h 14.9 l 45.16,131.715 h -15.32 z m 1082.4,188.531 c -15.88,0 -25.31,13.953 -25.31,37.305 0,23.152 9.43,37.285 24.92,37.285 11.94,0 17.68,-5.859 20.26,-20.996 h 13.55 c -1.97,21.179 -13.81,32.781 -33.42,32.781 -24.1,0 -39.45,-19.051 -39.45,-49.238 0,-29.481 15.49,-48.692 39.45,-48.692 20.45,0 32.39,11.946 34.14,34.309 h -13.69 c -1.62,-15.469 -8.08,-22.754 -20.45,-22.754 z m -80.39,123.465 h -0.58 c -5.55,-0.41 -9.65,-4.668 -9.65,-10.195 0,-5.704 4.33,-9.832 10.02,-9.832 5.88,0 10.06,4.128 10.06,9.832 0,5.898 -4.18,10.195 -9.85,10.195 z m -7.5,-132.664 h 14.51 v 93.008 h -14.51 z m -38.87,131.465 h -14.53 V 517.602 h 14.53 z m -44.86,-130.364 0.16,12.2 c -4.71,-2.161 -9.4,-3.118 -13.58,-3.118 -8.2,0 -10.35,3.118 -10.35,15.313 v 9.238 l 0.96,47.11 h 22.21 l 0.17,11.164 h -22.19 l 0.41,26.902 h -13.37 l -0.57,-26.902 h -14.1 l -0.14,-11.164 h 13.79 l -1.13,-46.719 c 0,-1.961 0,-4.317 -0.2,-7.274 0,-2.746 -0.17,-5.304 -0.17,-7.648 0,-15.887 6.32,-22.195 21.54,-22.195 5.96,0 10.64,0.976 16.56,3.093 z m -76.42,10.274 h -52.58 l 53.53,71.457 v 10.176 h -65.5 v -11.387 h 48.69 L 1999,528.402 v -10.8 h 68.68 z m -124.14,-11.406 v 41.632 c 0,12.352 1.19,20.235 4.17,26.719 4.13,9.219 10.55,14.297 18.03,14.297 3.5,0 6.1,-0.773 12.35,-3.711 v 13.731 c -3.91,1.921 -7.88,2.937 -11.39,2.937 -9.98,0 -17.46,-7.078 -24.1,-22.586 0.15,2.547 0.39,4.317 0.39,5.703 0,4.707 -0.61,9.668 -1.76,14.317 h -13.16 c 1.34,-8.43 1.52,-10.782 1.52,-25.664 v -67.375 z m -66.25,50.449 c -31.24,-5.703 -42.19,-12.149 -42.19,-25.117 0,-9.598 7.3,-16.317 17.97,-16.317 10.48,0 19.12,5.926 22.22,14.949 1.43,4.317 2,9.61 2,17.043 z m 13.51,-25.899 c 0,-15.32 0.2,-18.066 2.56,-24.55 h -13.13 c -1.42,4.914 -1.56,6.484 -1.99,12.57 -5.45,-10.02 -14.49,-14.895 -27.28,-14.895 -18.28,0 -30,10.364 -30,26.661 0,13.195 7.46,22.804 21.62,28.078 8.38,3.132 17.99,5.281 31.76,7.664 l 2.95,0.39 v 4.082 c 0,14.016 -5.1,19.453 -18.87,19.453 -12.17,0 -18.63,-4.882 -20.65,-15.292 h -13.71 c 2.01,17.46 14.2,26.894 34.9,26.894 15.16,0 26.18,-5.684 29.71,-15.312 1.74,-4.922 2.13,-9.239 2.13,-20.997 z m -22.73,99.133 c 0,-5.683 4.51,-10.41 10.17,-10.41 5.71,0 10.43,4.531 10.43,10.41 0,5.672 -4.72,10.203 -10.43,10.203 -5.66,0 -10.17,-4.531 -10.17,-10.203 z m -40.06,0 c 0,-5.683 4.67,-10.41 10.41,-10.41 5.66,0 10.19,4.531 10.19,10.41 0,5.672 -4.53,10.203 -10.19,10.203 -5.74,0 -10.41,-4.531 -10.41,-10.203 z m -70.06,-28.078 c -12.66,0 -22.19,-5.332 -28.48,-16.094 0,6.446 -0.23,9.016 -1.77,13.528 h -13.13 c 1.95,-8.059 2.19,-9.61 2.19,-24.688 v -68.351 h 13.71 v 52.023 c 0,19.824 9.02,31.406 24.71,31.406 12.79,0 18.65,-7.676 18.65,-24.133 v -59.296 h 13.71 v 62.394 c 0,22.215 -9.77,33.211 -29.59,33.211 z m -138.09,-40.605 h 48.91 c -1.56,18.82 -10,29.003 -23.97,29.003 -13.53,0 -22.16,-10 -24.94,-29.003 z m 25.53,40.605 c 22.77,0 37.72,-18.66 37.72,-47.488 0,-0.801 0,-2.188 -0.22,-3.938 h -63.4 c 0.57,-22.761 9.98,-34.754 26.88,-34.754 10.23,0 16.33,3.907 21.62,14.168 l 12.71,-1.59 c -5.68,-16.105 -17.44,-24.328 -34.45,-24.328 -25,0 -40.92,18.625 -40.92,47.864 0,30.437 15.78,50.066 40.06,50.066 z m -102.38,-86.59 c -13.36,0 -20.47,6.504 -21.6,19.852 h -13.38 v -0.164 c 0,-19.864 12.83,-31.028 35.19,-31.028 20.8,0 33.77,11.164 33.77,29.036 0,5.468 -1.42,10.41 -3.96,14.296 -3.93,5.723 -9.46,8.465 -26.12,13.543 -17.81,5.137 -21.79,8.098 -21.79,15.723 0,8.293 7.28,13.945 17.89,13.945 11.76,0 17.65,-5.281 19.1,-16.668 h 13.3 c -1,18.016 -12.44,28.055 -32.19,28.055 -19,0 -32.07,-10.625 -32.07,-26.289 0,-12.957 6.96,-19.844 24.98,-25.527 24.36,-7.489 26.68,-9.024 26.68,-18.262 0,-10.008 -7.65,-16.512 -19.8,-16.512 z m -63.67,17.696 c 0,5.468 -1.35,10.41 -3.97,14.296 -3.89,5.723 -9.35,8.465 -26.05,13.543 -17.86,5.137 -21.78,8.098 -21.78,15.723 0,8.293 7.26,13.945 17.81,13.945 11.82,0 17.72,-5.281 19.01,-16.668 h 13.37 c -0.95,18.016 -12.34,28.055 -32.16,28.055 -19.09,0 -32.02,-10.625 -32.02,-26.289 0,-12.957 6.9,-19.844 24.91,-25.527 24.39,-7.489 26.72,-9.024 26.72,-18.262 0,-10.008 -7.64,-16.512 -19.83,-16.512 -13.32,0 -20.41,6.504 -21.6,19.852 h -13.3 v -0.164 c 0,-19.864 12.71,-31.028 35.12,-31.028 20.82,0 33.77,11.164 33.77,29.036 z m -115.43,23.738 c -31.16,-5.703 -42.19,-12.149 -42.19,-25.117 0,-9.598 7.26,-16.317 18.1,-16.317 10.39,0 19.05,5.926 22.17,14.949 1.37,4.317 1.92,9.61 1.92,17.043 z m 13.59,-25.899 c 0,-15.32 0.21,-18.066 2.52,-24.55 h -13.11 c -1.38,4.914 -1.58,6.484 -1.99,12.57 -5.51,-10.02 -14.53,-14.895 -27.3,-14.895 -18.21,0 -30.02,10.364 -30.02,26.661 0,13.195 7.5,22.804 21.6,28.078 8.42,3.132 18.1,5.281 31.84,7.664 l 2.87,0.39 v 4.082 c 0,14.016 -5.04,19.453 -18.83,19.453 -12.17,0 -18.62,-4.882 -20.59,-15.292 h -13.67 c 1.89,17.46 14.04,26.894 34.9,26.894 15.08,0 26.12,-5.684 29.61,-15.312 1.76,-4.922 2.17,-9.239 2.17,-20.997 z M 1209.55,648.57 h -14.69 V 517.602 h 14.69 z m 71.08,0 h -17.92 l -52.94,-62.461 55.72,-68.507 h 20.21 l -58.49,68.918 z m 1270.64,-75.968 c -1.56,18.82 -10,29.003 -23.95,29.003 -13.55,0 -22.22,-10 -24.92,-29.003 z m 14.28,-6.883 c 0,-0.801 0,-2.188 -0.14,-3.938 h -63.42 c 0.63,-22.761 10,-34.754 26.9,-34.754 10.15,0 16.27,3.907 21.54,14.168 l 12.79,-1.59 c -5.68,-16.105 -17.42,-24.328 -34.51,-24.328 -24.96,0 -40.9,18.625 -40.9,47.864 0,30.437 15.76,50.066 40.12,50.066 22.7,0 37.62,-18.66 37.62,-47.488 z m -113.81,31.394 c 1.89,-5.886 2.3,-9.824 2.3,-26.133 v -53.378 h -13.53 v 52.628 c 0,23.536 -4.53,30.801 -19.03,30.801 -15.52,0 -23.96,-11.386 -23.96,-32.187 v -51.242 h -13.73 v 131.496 h 13.73 v -49.434 c 6.86,9.422 15.31,13.543 26.72,13.543 12.95,0 23.71,-6.269 27.5,-16.094" /></g></g></svg>