<?xml version="1.0" encoding="UTF-8"?>
<svg width="193px" height="79px" viewBox="0 0 193 79" version="1.1" xmlns="http://www.w3.org/2000/svg" xmlns:xlink="http://www.w3.org/1999/xlink">
    <title>Global / Logo</title>
    <g id="Global-/-Logo" stroke="none" stroke-width="1" fill="none" fill-rule="evenodd">
        <g id="logo" transform="translate(0.000000, -0.000000)" fill-rule="nonzero">
            <g id="Group" transform="translate(70.271795, 0.000000)">
                <path d="M52.2715131,0 L40.5838377,31.5758327 L33.7709214,12.9602298 L28.6612342,12.9602298 L33.3597971,0.353460813 L32.4200845,0 L20.7324091,31.5758327 L13.9194928,12.9602298 L8.80980558,12.9602298 L8.57487743,13.6082413 C9.51459003,13.7849717 10.1606424,14.1973427 10.4543026,15.1399048 L17.0322908,32.9307658 L21.2609975,32.9307658 L28.426306,13.5493312 C29.3660186,13.7260616 30.012071,14.1384325 30.3057312,15.0809947 L36.8249873,32.9307658 L41.053694,32.9307658 L53.1524937,0.294550678 L52.2715131,0 Z" id="Path" fill="#000000"></path>
                <polygon id="Rectangle" fill="#E61E1E" transform="translate(6.931455, 16.704284) rotate(20.401141) translate(-6.931455, -16.704284) " points="6.44398509 -0.933754909 7.38406898 -0.932823856 7.41892528 34.3423231 6.47884139 34.3413921"></polygon>
            </g>
            <g id="Group" transform="translate(0.000000, 43.454888)" fill="#000000">
                <path d="M18.3613982,12.1558466 C18.3613982,11.4069082 18.9480243,10.8308017 19.6519757,10.8308017 C20.4145897,10.8308017 21.0012158,11.4069082 21.0012158,12.1558466 C21.0012158,12.9623956 20.4145897,13.4808915 19.6519757,13.4808915 C18.9480243,13.5385021 18.3613982,13.0200063 18.3613982,12.1558466 Z" id="Path"></path>
                <path d="M41.5917933,12.1558466 C41.5917933,11.4069082 42.1784195,10.8308017 42.8823708,10.8308017 C43.6449848,10.8308017 44.2316109,11.4069082 44.2316109,12.1558466 C44.2316109,12.9623956 43.6449848,13.4808915 42.8823708,13.4808915 C42.1784195,13.5385021 41.5917933,13.0200063 41.5917933,12.1558466 Z" id="Path"></path>
                <path d="M10.9112462,13.3080595 L10.9112462,12.6743424 C12.4364742,12.5015105 12.4951368,12.3862892 12.4951368,10.4851378 L12.4364742,2.88053236 L12.3778116,2.88053236 L7.86079027,13.1352276 L7.33282675,13.1352276 L3.22644377,3.1685856 L3.16778116,3.1685856 L2.9331307,8.35354385 C2.87446809,9.96664198 2.87446809,10.8308017 2.9331307,11.5221295 C2.99179331,12.3862892 3.40243161,12.5591211 4.69300912,12.6743424 L4.69300912,13.3080595 L0,13.3080595 L0,12.6743424 C1.11458967,12.5591211 1.46656535,12.2710679 1.58389058,11.5797401 C1.70121581,10.946023 1.81854103,10.0242526 1.99452888,7.95026932 L2.34650456,4.03274531 C2.5224924,1.72831942 2.40516717,1.49787683 0.645288754,1.38265553 L0.645288754,0.748938415 L4.39969605,0.748938415 L8.44741641,9.62097809 L12.5537994,0.748938415 L16.3082067,0.748938415 L16.3082067,1.38265553 C14.6656535,1.55548748 14.6069909,1.61309812 14.6069909,3.39902819 L14.7829787,10.5427485 C14.8416413,12.3862892 14.900304,12.5591211 16.4841945,12.731953 L16.4841945,13.3656702 L10.9112462,13.3656702 L10.9112462,13.3080595 Z" id="Path"></path>
                <path d="M34.1416413,13.3080595 L34.1416413,12.6743424 C35.6668693,12.5015105 35.7255319,12.3862892 35.7255319,10.4851378 L35.6668693,2.88053236 L35.6082067,2.88053236 L31.0911854,13.1928382 L30.5632219,13.1928382 L26.3981763,3.1685856 L26.3981763,3.1685856 L26.1635258,8.35354385 C26.1048632,9.96664198 26.1048632,10.8308017 26.1635258,11.5221295 C26.2221884,12.3862892 26.6328267,12.5591211 27.9234043,12.6743424 L27.9234043,13.3080595 L23.2303951,13.3080595 L23.2303951,12.6743424 C24.3449848,12.5591211 24.6969605,12.2710679 24.8142857,11.5797401 C24.9316109,10.946023 25.0489362,10.0242526 25.224924,7.95026932 L25.5182371,4.09035596 C25.6942249,1.78593007 25.5768997,1.55548748 23.8170213,1.44026618 L23.8170213,0.806549062 L27.5714286,0.806549062 L31.6191489,9.67858874 L35.7255319,0.806549062 L39.4799392,0.806549062 L39.4799392,1.44026618 C37.837386,1.61309812 37.7787234,1.67070877 37.7787234,3.45663884 L37.9547112,10.6003591 C38.0133739,12.4438998 38.0720365,12.6167318 39.6559271,12.7895637 L39.6559271,13.4232808 L34.1416413,13.4232808 L34.1416413,13.3080595 Z" id="Path"></path>
                <path d="M65.5848024,1.38265553 C64.2942249,1.55548748 64.0009119,1.78593007 63.4142857,3.39902819 C62.9449848,4.66646243 61.8303951,8.12310127 60.1878419,13.5385021 L59.3079027,13.5385021 C58.2519757,10.5427485 57.0787234,7.48938415 56.0227964,4.60885178 L55.9641337,4.60885178 C54.9082067,7.71982673 53.9109422,10.6579697 52.9136778,13.5385021 L52.0337386,13.5385021 C50.9778116,10.0818633 49.9218845,6.74044573 48.8659574,3.34141754 C48.3966565,1.84354071 48.0446809,1.61309812 46.8714286,1.44026618 L46.8714286,0.806549062 L52.3270517,0.806549062 L52.3270517,1.44026618 C50.8604863,1.61309812 50.8604863,1.84354071 51.0951368,2.82292172 C51.7990881,5.18495825 52.5030395,7.54699479 53.2656535,9.90903133 L53.3243161,9.90903133 C54.3215805,6.97088832 55.318845,3.97513466 56.2574468,0.921770356 L57.0787234,0.921770356 C58.1933131,3.97513466 59.3079027,6.97088832 60.4224924,9.96664198 L60.481155,9.96664198 C61.243769,7.54699479 62.1823708,4.2631879 62.4756839,3.05336431 C62.768997,1.90115136 62.6516717,1.61309812 61.1264438,1.44026618 L61.1264438,0.806549062 L65.643465,0.806549062 L65.643465,1.38265553 L65.5848024,1.38265553 Z" id="Path"></path>
                <path d="M71.0990881,13.3080595 L71.0990881,12.6743424 C72.2723404,12.5015105 72.3896657,12.2710679 72.0963526,11.4645188 C71.8617021,10.8308017 71.5683891,9.90903133 71.2164134,8.98726097 L67.2860182,8.98726097 C67.0513678,9.67858874 66.7580547,10.4275272 66.5234043,11.2340762 C66.1714286,12.2710679 66.2887538,12.5015105 67.6966565,12.6743424 L67.6966565,13.3080595 L63.3556231,13.3080595 L63.3556231,12.6743424 C64.6462006,12.5015105 64.8808511,12.3286785 65.5848024,10.6579697 L69.6325228,0.691327767 L70.512462,0.460885178 C71.7443769,3.80230272 73.0349544,7.3165522 74.2668693,10.6003591 C74.9121581,12.2710679 75.1468085,12.5015105 76.437386,12.6743424 L76.437386,13.3080595 L71.0990881,13.3080595 Z M69.3392097,3.62947078 L69.2805471,3.62947078 C68.693921,5.12734761 68.1659574,6.62522444 67.6379939,8.06549062 L70.9231003,8.06549062 L69.3392097,3.62947078 Z" id="Shape"></path>
                <path d="M89.6364742,13.4808915 C89.4604863,13.4808915 89.2258359,13.4808915 89.049848,13.4808915 C86.9379939,13.3656702 86.1167173,12.904785 85.2954407,11.6373507 C84.7088146,10.773191 84.1221884,9.67858874 83.5355623,8.69920774 C83.2422492,8.12310127 82.8902736,7.89265868 82.1276596,7.89265868 L81.6583587,7.89265868 L81.6583587,10.8308017 C81.6583587,12.3862892 81.8343465,12.5591211 83.3595745,12.731953 L83.3595745,13.3656702 L77.7279635,13.3656702 L77.7279635,12.6743424 C79.2531915,12.5591211 79.4291793,12.3862892 79.4291793,10.773191 L79.4291793,3.22619625 C79.4291793,1.67070877 79.2531915,1.49787683 77.7866261,1.38265553 L77.7866261,0.748938415 L83.0662614,0.748938415 C84.650152,0.748938415 85.6474164,0.921770356 86.468693,1.44026618 C87.231307,1.95876201 87.7592705,2.82292172 87.7592705,4.03274531 C87.7592705,5.70345408 86.6446809,6.68283508 85.2954407,7.20133091 C85.5887538,7.77743738 86.3513678,9.10248227 86.9379939,9.96664198 C87.6419453,11.0036336 88.0525836,11.5797401 88.4632219,12.0406253 C88.9325228,12.5591211 89.2844985,12.7895637 89.7537994,12.904785 L89.6364742,13.4808915 Z M82.3036474,7.14372026 C83.1835866,7.14372026 83.8288754,6.97088832 84.2981763,6.62522444 C85.0021277,6.04911796 85.2954407,5.30017955 85.2954407,4.2631879 C85.2954407,2.1892046 84.0635258,1.44026618 82.7729483,1.44026618 C82.2449848,1.44026618 81.9516717,1.55548748 81.8343465,1.61309812 C81.7170213,1.72831942 81.6583587,1.95876201 81.6583587,2.36203654 L81.6583587,7.08610961 L82.3036474,7.08610961 L82.3036474,7.14372026 Z" id="Shape"></path>
                <path d="M98.318541,6.56761379 C100.489058,6.85566703 102.014286,7.71982673 102.014286,9.62097809 C102.014286,10.8884123 101.310334,11.925404 100.195745,12.5015105 C99.1984802,13.0776169 97.7319149,13.3080595 96.1480243,13.3080595 L91.3963526,13.3080595 L91.3963526,12.6743424 C92.9802432,12.5591211 93.0975684,12.4438998 93.0975684,10.8308017 L93.0975684,3.28380689 C93.0975684,1.67070877 92.9802432,1.55548748 91.5136778,1.44026618 L91.5136778,0.806549062 L96.9693009,0.806549062 C98.4358663,0.806549062 99.4331307,1.03699165 100.137082,1.49787683 C100.841033,1.95876201 101.251672,2.76531107 101.251672,3.68708143 C101.251672,5.53062214 99.6677812,6.27956055 98.318541,6.56761379 L98.318541,6.56761379 L98.318541,6.56761379 Z M95.9720365,6.27956055 C97.9665653,6.27956055 98.8465046,5.53062214 98.8465046,3.91752401 C98.8465046,2.36203654 97.9079027,1.49787683 96.5586626,1.49787683 C96.0893617,1.49787683 95.737386,1.61309812 95.6200608,1.72831942 C95.4440729,1.84354071 95.3854103,2.13159395 95.3854103,2.59247913 L95.3854103,6.27956055 L95.9720365,6.27956055 L95.9720365,6.27956055 Z M95.3267477,10.773191 C95.3267477,12.1558466 95.737386,12.5591211 96.8519757,12.5591211 C98.1425532,12.5591211 99.4331307,11.752572 99.4331307,9.79381004 C99.4331307,7.95026932 98.2012158,7.02849897 95.9133739,7.02849897 L95.3267477,7.02849897 L95.3267477,10.773191 Z" id="Shape"></path>
                <path d="M117.14924,1.38265553 C116.03465,1.44026618 115.56535,1.78593007 115.448024,2.53486848 C115.389362,3.11097495 115.330699,3.85991337 115.330699,5.3577902 L115.330699,7.25894156 C115.330699,9.39053551 114.978723,11.0036336 113.864134,12.1558466 C112.984195,13.0776169 111.634954,13.5385021 110.285714,13.5385021 C109.053799,13.5385021 107.821884,13.2504489 106.941945,12.5591211 C105.827356,11.6949614 105.299392,10.2546952 105.299392,8.00787997 L105.299392,3.34141754 C105.299392,1.55548748 105.123404,1.44026618 103.656839,1.32504489 L103.656839,0.691327767 L109.28845,0.691327767 L109.28845,1.32504489 C107.821884,1.44026618 107.645897,1.55548748 107.645897,3.34141754 L107.645897,7.60460544 C107.645897,10.6003591 108.760486,12.2710679 110.989666,12.2710679 C113.512158,12.2710679 114.509422,10.3123059 114.509422,7.08610961 L114.509422,5.2425689 C114.509422,3.74469207 114.392097,2.93814301 114.333435,2.36203654 C114.216109,1.67070877 113.805471,1.32504489 112.397568,1.26743424 L112.397568,0.63371712 L117.207903,0.63371712 L117.207903,1.38265553 L117.14924,1.38265553 Z" id="Path"></path>
                <path d="M130.758967,13.4808915 C130.582979,13.4808915 130.348328,13.4808915 130.17234,13.4808915 C128.060486,13.3656702 127.23921,12.904785 126.417933,11.6373507 C125.831307,10.773191 125.244681,9.67858874 124.658055,8.69920774 C124.364742,8.12310127 124.012766,7.89265868 123.250152,7.89265868 L122.780851,7.89265868 L122.780851,10.8308017 C122.780851,12.3862892 122.956839,12.5591211 124.482067,12.731953 L124.482067,13.3656702 L118.850456,13.3656702 L118.850456,12.6743424 C120.375684,12.5591211 120.551672,12.3862892 120.551672,10.773191 L120.551672,3.22619625 C120.551672,1.67070877 120.375684,1.49787683 118.909119,1.38265553 L118.909119,0.748938415 L124.188754,0.748938415 C125.772644,0.748938415 126.769909,0.921770356 127.591185,1.44026618 C128.353799,1.95876201 128.881763,2.82292172 128.881763,4.03274531 C128.881763,5.70345408 127.767173,6.68283508 126.417933,7.20133091 C126.711246,7.77743738 127.47386,9.10248227 128.060486,9.96664198 C128.764438,11.0036336 129.175076,11.5797401 129.585714,12.0406253 C130.055015,12.5591211 130.406991,12.7895637 130.876292,12.904785 L130.758967,13.4808915 Z M123.42614,7.14372026 C124.306079,7.14372026 124.951368,6.97088832 125.420669,6.62522444 C126.12462,6.04911796 126.417933,5.30017955 126.417933,4.2631879 C126.417933,2.1892046 125.186018,1.44026618 123.895441,1.44026618 C123.367477,1.44026618 123.074164,1.55548748 122.956839,1.61309812 C122.839514,1.72831942 122.780851,1.95876201 122.780851,2.36203654 L122.780851,7.08610961 L123.42614,7.08610961 L123.42614,7.14372026 Z" id="Shape"></path>
                <path d="M144.896657,8.00787997 C143.840729,8.18071191 143.723404,8.29593321 143.723404,9.5057568 L143.723404,11.0612443 C143.723404,11.752572 143.723404,12.3862892 143.840729,12.8471743 C142.667477,13.1352276 140.966261,13.5385021 139.382371,13.5385021 C134.924012,13.5385021 131.990881,10.946023 131.990881,7.08610961 C131.990881,2.65008977 135.627964,0.403274531 139.675684,0.403274531 C141.259574,0.403274531 142.784802,0.806549062 143.488754,0.921770356 C143.547416,1.61309812 143.664742,2.59247913 143.782067,4.09035596 L143.136778,4.20557725 C142.667477,1.95876201 141.142249,1.15221295 139.323708,1.15221295 C136.742553,1.15221295 134.630699,3.28380689 134.630699,6.74044573 C134.630699,9.62097809 136.155927,12.731953 139.558359,12.731953 C140.086322,12.731953 140.555623,12.6167318 140.907599,12.4438998 C141.200912,12.2710679 141.435562,11.9830146 141.435562,11.2916869 L141.435562,9.5057568 C141.435562,8.18071191 141.318237,8.00787997 139.323708,7.83504803 L139.323708,7.20133091 L144.896657,7.20133091 L144.896657,8.00787997 L144.896657,8.00787997 Z" id="Path"></path>
                <path d="M161.028875,6.68283508 C160.324924,6.79805638 159.914286,7.02849897 159.268997,7.89265868 C158.741033,8.5263758 158.330395,9.16009292 157.626444,10.0818633 C158.741033,11.0612443 160.031611,12.5591211 160.618237,13.4808915 L160.442249,13.7113341 C159.268997,13.6537234 157.978419,13.1928382 157.567781,12.7895637 C157.391793,12.6167318 156.922492,12.1558466 156.394529,11.6373507 C155.397264,12.7895637 154.224012,13.5385021 152.816109,13.5385021 C150.528267,13.5385021 149.23769,11.925404 149.179027,10.3699165 C149.179027,8.92965033 150.410942,8.18071191 151.642857,7.37416285 C150.997568,6.79805638 150.410942,6.04911796 150.410942,5.06973696 C150.410942,3.39902819 151.93617,2.1892046 153.637386,2.1892046 C155.279939,2.1892046 156.570517,3.22619625 156.570517,4.83929437 C156.570517,5.47301149 156.218541,5.93389667 155.74924,6.27956055 C155.397264,6.56761379 155.045289,6.79805638 154.341337,7.25894156 C155.045289,7.83504803 155.983891,8.64159709 157.09848,9.62097809 C157.685106,8.81442903 157.919757,8.29593321 158.21307,7.71982673 C158.565046,7.08610961 158.565046,6.79805638 157.802432,6.68283508 L157.274468,6.56761379 L157.274468,5.93389667 L161.556839,5.93389667 L161.556839,6.56761379 L161.028875,6.68283508 Z M155.866565,11.1764656 C154.751976,10.0818633 153.696049,9.16009292 152.170821,7.83504803 C151.584195,8.4111545 151.173556,8.98726097 151.173556,9.73619939 C151.173556,11.2916869 152.522796,12.1558466 153.637386,12.1558466 C154.575988,12.1558466 155.397264,11.752572 155.866565,11.1764656 Z M152.112158,4.49363049 C152.112158,5.3577902 152.698784,5.99150732 153.872036,6.85566703 C154.63465,6.27956055 154.986626,5.53062214 154.986626,4.78168372 C154.986626,3.74469207 154.4,2.88053236 153.520061,2.88053236 C152.698784,2.88053236 152.112158,3.62947078 152.112158,4.49363049 Z" id="Shape"></path>
                <path d="M177.571733,10.0242526 C177.278419,10.946023 176.809119,12.4438998 176.457143,13.0776169 C175.929179,13.1928382 174.169301,13.5961128 172.820061,13.5961128 C167.716413,13.5961128 165.545897,10.2546952 165.545897,7.20133091 C165.545897,3.1685856 168.655015,0.460885178 173.289362,0.460885178 C174.873252,0.460885178 176.281155,0.864159709 176.809119,0.979381004 C176.985106,2.01637265 177.102432,2.93814301 177.219757,4.03274531 L176.515805,4.1479666 C175.929179,1.95876201 174.521277,1.20982359 172.820061,1.20982359 C169.828267,1.20982359 168.185714,3.85991337 168.185714,6.74044573 C168.185714,10.3123059 170.180243,12.6743424 172.996049,12.6743424 C174.755927,12.6743424 175.929179,11.6373507 176.926444,9.67858874 L177.571733,10.0242526 Z" id="Path"></path>
                <path d="M192.648024,6.91327767 C192.648024,11.0612443 189.597568,13.5961128 185.960486,13.5961128 C182.147416,13.5961128 179.390274,10.773191 179.390274,7.08610961 C179.390274,3.74469207 181.854103,0.460885178 186.195137,0.460885178 C189.656231,0.460885178 192.648024,3.05336431 192.648024,6.91327767 Z M182.030091,6.68283508 C182.030091,10.0818633 183.672644,12.8471743 186.312462,12.8471743 C188.306991,12.8471743 189.949544,11.0612443 189.949544,7.4317735 C189.949544,3.51424948 188.189666,1.26743424 185.784498,1.26743424 C183.731307,1.20982359 182.030091,3.22619625 182.030091,6.68283508 Z" id="Shape"></path>
            </g>
            <g id="Group" transform="translate(76.210256, 67.157555)" fill="#E61E1E">
                <path d="M7.36227839,3.01770057 C7.36227839,4.2247808 6.72460073,4.88867493 6.02895238,5.25079899 C7.1303956,5.67327707 7.94198535,6.3371712 7.94198535,7.66495945 C7.94198535,9.47557979 6.55068864,10.38089 4.40577289,10.38089 L0,10.38089 L0,0.482832091 L4.2898315,0.482832091 C6.14489377,0.482832091 7.36227839,1.44849627 7.36227839,3.01770057 Z M5.68112821,3.31947063 C5.68112821,2.53486848 5.10142125,2.05203639 3.99997802,2.05203639 L1.56520879,2.05203639 L1.56520879,4.70761289 L3.82606593,4.70761289 C4.92750916,4.64725888 5.68112821,4.2247808 5.68112821,3.31947063 Z M6.20286447,7.48389742 C6.20286447,6.63894126 5.56518681,6.15610917 4.23186081,6.15610917 L1.56520879,6.15610917 L1.56520879,8.87203968 L4.3478022,8.87203968 C5.50721612,8.87203968 6.20286447,8.38920759 6.20286447,7.48389742 Z" id="Shape"></path>
                <path d="M18.7825055,10.441244 L16.9854139,10.441244 L15.9999121,8.02708352 L11.4781978,8.02708352 L10.492696,10.441244 L8.75357509,10.441244 L12.9274652,0.42247808 L14.492674,0.42247808 L18.7825055,10.441244 Z M13.7970256,2.47451447 L12.1738462,6.45787922 L15.4781758,6.45787922 L13.7970256,2.47451447 Z" id="Shape"></path>
                <polygon id="Path" points="27.072315 0.482832091 28.6954945 0.482832091 28.6954945 10.38089 27.3041978 10.38089 22.0288645 3.31947063 22.0288645 10.38089 20.405685 10.38089 20.405685 0.482832091 21.9708938 0.482832091 27.072315 7.36318939"></polygon>
                <polygon id="Path" points="40.1157216 10.441244 38.0867473 10.441244 34.8403883 5.97504713 33.3331502 7.54425143 33.3331502 10.441244 31.652 10.441244 31.652 0.543186103 33.3331502 0.543186103 33.3331502 5.55256905 37.8548645 0.543186103 39.8838388 0.543186103 35.9418315 4.82832091"></polygon>
            </g>
        </g>
    </g>
</svg>