<?xml version="1.0" encoding="UTF-8"?>
<svg id="Logo" xmlns="http://www.w3.org/2000/svg" viewBox="0 0 762.03 693.77">
  <defs>
    <style>
      .cls-1 {
        fill: #cc4843;
      }
    </style>
  </defs>
  <g id="rotated">
    <path class="cls-1" d="M316,75.45c21.97-23.92,59.3-25.5,83.21-3.54,23.92,21.97,25.5,59.3,3.54,83.21s-59.3,25.5-83.21,3.54c-23.92-21.97-25.5-59.3-3.54-83.21M294.04,55.28c-33.14,36.08-30.76,92.2,5.33,125.35,36.08,33.14,92.2,30.76,125.35-5.33,33.14-36.08,30.76-92.2-5.33-125.35-36.08-33.14-92.2-30.76-125.35,5.33h0Z"/>
    <path class="cls-1" d="M54.33,443.55c34.69-37.77,93.65-40.28,131.42-5.59,37.77,34.69,40.28,93.65,5.59,131.42-34.69,37.77-93.65,40.28-131.42,5.59-37.77-34.69-40.28-93.65-5.59-131.42M32.37,423.38c-45.89,49.96-42.59,127.66,7.38,173.55,49.96,45.89,127.66,42.59,173.55-7.38,45.89-49.96,42.59-127.66-7.38-173.55-49.96-45.89-127.66-42.59-173.55,7.38h0Z"/>
    <path class="cls-1" d="M511.38,424.19c47.43-51.64,128.04-55.07,179.68-7.64,51.64,47.43,55.07,128.04,7.64,179.68-47.43,51.64-128.04,55.07-179.68,7.64-51.64-47.43-55.07-128.04-7.64-179.68M489.42,404.02c-58.65,63.85-54.43,163.16,9.43,221.81,63.85,58.65,163.16,54.43,221.81-9.43,58.65-63.85,54.43-163.16-9.43-221.81-63.85-58.65-163.16-54.43-221.81,9.43h0Z"/>
    <path class="cls-1" d="M194.02,407.03l-25.54-15.39,25.66-42.56,25.54,15.39-25.66,42.56ZM245.33,321.9l-25.54-15.39,25.66-42.56,25.54,15.39-25.66,42.56ZM296.65,236.78l-25.54-15.39,25.66-42.56,25.54,15.39-25.66,42.56Z"/>
    <g>
      <rect class="cls-1" x="231.24" y="483.38" width="89.46" height="29.82" transform="translate(-3.95 2.21) rotate(-.46)"/>
      <rect class="cls-1" x="376" y="482.23" width="89.45" height="29.82" transform="translate(-4.01 3.42) rotate(-.46)"/>
    </g>
  </g>
</svg>